<?xml version="1.0" standalone="no"?>
<!DOCTYPE svg PUBLIC "-//W3C//DTD SVG 1.1//EN" "http://www.w3.org/Graphics/SVG/1.1/DTD/svg11.dtd" >
<svg xmlns="http://www.w3.org/2000/svg" xmlns:xlink="http://www.w3.org/1999/xlink" version="1.1">
<metadata>
Created by FontForge 20161003 at Tue Aug 29 05:40:19 2017
 By www-data
ISFOC-DEVANAGARI-SUREKH-NORMAL. Copyright (c) 1992-95, C-DAC, PUNE, INDIA.
</metadata>
<defs>
<font id="DV-TTSurekhNormal" horiz-adv-x="2" >
  <font-face 
    font-family="DV-TTSurekh"
    font-weight="400"
    font-stretch="normal"
    units-per-em="1000"
    panose-1="4 0 0 0 0 0 0 0 0 0"
    ascent="800"
    descent="-200"
    x-height="477"
    cap-height="477"
    bbox="-375 -274 788 750"
    underline-thickness="24"
    underline-position="-307"
    unicode-range="U+0020-00FE"
  />
<missing-glyph horiz-adv-x="750" 
d="M46 0v750h658v-750h-658zM658 46v658h-566v-658h566z" />
    <glyph glyph-name=".notdef" horiz-adv-x="750" 
d="M46 0v750h658v-750h-658zM658 46v658h-566v-658h566z" />
    <glyph glyph-name=".null" horiz-adv-x="0" 
 />
    <glyph glyph-name="nonmarkingreturn" horiz-adv-x="289" 
 />
    <glyph glyph-name="space" unicode=" " horiz-adv-x="289" 
 />
    <glyph glyph-name="exclam" unicode="!" horiz-adv-x="366" 
d="M308 495l-16 -392l-38 22l-14 412zM324 -3l-54 -54l-54 53l54 54z" />
    <glyph glyph-name="quotedbl" unicode="&#x22;" horiz-adv-x="189" 
d="M93 484l-35 -55q-12 9 -18 15q-20 18 -29.5 33t-9.5 30q0 16 10 39q5 12 12.5 29.5t20.5 43.5q5 10 14 27l22 -17l-5 -10q-12 -25 -15.5 -35.5t-6.5 -23.5t-3 -19q0 -15 8 -26t26 -25z" />
    <glyph glyph-name="numbersign" unicode="#" horiz-adv-x="471" 
d="M302 73q-30 -13 -67 -13q-34 0 -67 13l-13 -29q21 -8 40.5 -12t42.5 -4q39 0 77 15zM444 210q-11 -82 -79 -138l-19 25q59 48 67 117zM365 406q31 -23 53 -60t27 -77l-32 -4q-10 71 -67 116zM155 436q39 15 79 15q42 0 81 -15l-13 -30q-31 14 -67 14t-68 -15zM26 269
q6 42 25 76.5t54 60.5l20 -25q-26 -19 -45 -50.5t-23 -65.5zM124 99q-27 19 -44 50.5t-23 64.5l-31 -4q5 -40 25.5 -75t52.5 -61z" />
    <glyph glyph-name="dollar" unicode="$" horiz-adv-x="842" 
d="M571 521l-42 -42l-41 41l42 42zM685 462q-7 -12 -12 -19q-30 -43 -64 -61q-45 -24 -79 -24q-52 0 -100 55q-24 28 -46 70q-4 7 -9 20l21 8q6 -13 10 -20q12 -22 25 -38q20 -24 42 -37.5t46 -13.5q17 0 30 4.5t32 16.5q27 18 45 43q6 9 14 24zM779 125q-30 -64 -86 -64
q-15 0 -32 6q-27 9 -54 44q-9 11 -22 33q-23 -32 -38 -48q-46 -49 -82 -49q-37 0 -76 38q-13 12 -32 38q-6 -23 -12 -35q-20 -39 -55 -54q-29 -12 -55 -12q-37 0 -70 20.5t-67 61.5q-23 29 -44 73q-7 14 -17 39l24 12q13 -29 22 -46q28 -51 58 -79t77 -28q33 0 57.5 16.5
t27.5 38.5t3 29q0 44 -28 63q-4 3 -13 7q-12 -6 -19 -9q-23 -9 -43 -9q-9 0 -13 1q-19 4 -32 19t-13 28q0 11 11 13q16 -1 28 -1q30 0 51 6q30 9 46 30q13 17 13 40q0 25 -17 42t-51 17q-30 0 -67 -18q-12 -6 -31 -18l-27 54q19 8 30 11q35 11 61 11q47 0 78 -18
q27 -15 52 -50q10 -14 14.5 -27t4.5 -26q0 -29 -22 -58q-7 -9 -22 -23q19 -26 29 -39q28 -36 47 -56q22 -26 41 -37.5t35 -11.5q19 0 38 15q10 8 29 29q26 25 53 67q19 30 30 44q16 20 34 32q24 15 50 15q17 0 34 -7.5t35 -25t27 -44t9 -53.5q0 -29 -9 -47zM744 174
q3 17 3 29q0 30 -13.5 45t-33.5 15q-27 0 -47 -22.5t-47 -62.5l-10 -15q14 -20 23 -30q29 -30 56 -30q25 0 44.5 20.5t24.5 50.5z" />
    <glyph glyph-name="percent" unicode="%" horiz-adv-x="412" 
d="M357 425h-176q-12 -5 -17 -9q-17 -14 -17 -34q0 -15 9 -30.5t32 -36.5q59 -54 90 -100q26 -38 33 -71q2 -14 2 -21q0 -46 -34 -79t-83 -33q-58 0 -113 58q-18 19 -43 58l22 16q18 -26 30 -39q38 -39 80 -39q35 0 58.5 23.5t23.5 63.5q0 45 -53 105q-42 43 -83 87
q-13 15 -19.5 30t-6.5 28q0 30 30 55q10 8 31 20h168z" />
    <glyph glyph-name="ampersand" unicode="&#x26;" horiz-adv-x="209" 
d="M242 425h-241l-36 52h243zM161 323l-51 -51l-53 52l52 52zM161 83l-51 -52l-53 53l52 51z" />
    <glyph glyph-name="quotesingle" unicode="'" horiz-adv-x="219" 
d="M206 568q0 -19 -27 -83q-9 -21 -28 -61l-26 21q10 18 14 29q14 34 14 58q0 16 -22 35q-7 6 -22 15l39 61q20 -13 29 -22q29 -27 29 -53z" />
    <glyph glyph-name="parenleft" unicode="(" horiz-adv-x="318" 
d="M272 605q-14 -9 -24 -16q-60 -47 -104 -136q-38 -76 -38 -189q0 -56 10 -106q19 -93 80 -168q20 -25 58 -57l-15 -23q-37 25 -58 46q-65 63 -105 153q-15 36 -23.5 78.5t-8.5 84.5q0 60 13 111.5t35 85.5q46 71 111 123q21 17 55 38z" />
    <glyph glyph-name="parenright" unicode=")" horiz-adv-x="298" 
d="M224 76q-37 -64 -96 -118q-20 -18 -54 -42l-14 23q24 19 38 34q44 47 75 116t31 160q0 63 -17 123q-21 73 -84 143q-21 23 -59 55l13 23q36 -28 57 -48q66 -62 105 -131q20 -36 30.5 -81.5t10.5 -96.5q0 -98 -36 -160z" />
    <glyph glyph-name="asterisk" unicode="*" horiz-adv-x="321" 
d="M273 -1l-52 38v448l52 -35v-451z" />
    <glyph glyph-name="plus" unicode="+" horiz-adv-x="576" 
d="M611 425h-95v-425l-52 38v177q-8 -3 -13 -4q-19 -5 -34 -5q-10 0 -15 1q-27 4 -52 18q-8 4 -20 14q4 -10 5 -16q5 -20 5 -39q0 -20 -3.5 -33t-15.5 -29q-36 -51 -92 -51q-27 0 -54 13t-51 36q-20 19 -46 53q-12 16 -29 46q-5 10 -14 27l22 12q11 -19 17 -30
q21 -35 35 -51q21 -24 45.5 -39.5t51.5 -15.5q18 0 33 7q29 13 45 39.5t16 49.5q0 34 -23 52q-7 6 -24 12l-89 -41l-29 47l89 40q18 8 26 14q26 18 26 41q1 10 1 14q0 24 -13 35t-36 11q-13 0 -29 -4t-34 -10l-44 -23l-31 47q15 7 23 11q27 13 43.5 17t35.5 4q54 0 93 -32
t39 -78q0 -10 -1 -15q-4 -23 -21 -45q-5 -7 -17 -17q19 -17 32 -25q42 -26 88 -26q21 0 42 18q7 6 17 19v141h-95l-34 52h242z" />
    <glyph glyph-name="comma" unicode="," horiz-adv-x="198" 
d="M162 67q10 -16 10 -32t-9 -40q-5 -13 -11 -30.5t-20 -45.5q-5 -10 -15 -27l-25 16l18 39q5 13 9 27.5t4 25.5q0 15 -9 28t-26 24q-3 1 -8 4l35 55q12 -9 18 -14q21 -17 29 -30z" />
    <glyph glyph-name="hyphen" unicode="-" horiz-adv-x="277" 
d="M242 219h-177l-31 45h177z" />
    <glyph glyph-name="period" unicode="." horiz-adv-x="221" 
d="M186 62l-54 -53l-52 52l53 53z" />
    <glyph glyph-name="slash" unicode="/" horiz-adv-x="375" 
d="M311 515l-204 -558l-34 12l204 558z" />
    <glyph glyph-name="zero" unicode="0" horiz-adv-x="374" 
d="M292 350q33 -36 33 -85q0 -57 -43 -100q-54 -51 -112 -51q-55 0 -98 46q-13 15 -20 33.5t-7 36.5q0 27 12 53.5t32.5 49t47.5 38.5q35 20 68 20q23 0 44.5 -9.5t42.5 -31.5zM257 182q17 21 17 49q0 22 -8 41.5t-23 37.5q-32 37 -72 37q-33 0 -58 -28q-18 -19 -18 -50
q0 -20 8 -39.5t22 -37.5q34 -37 77 -37q32 0 55 27z" />
    <glyph glyph-name="one" unicode="1" horiz-adv-x="322" 
d="M284 41q11 -17 11 -32q0 -18 -16 -35q-5 -5 -16 -13l-57 41q7 3 10 5q10 8 10 21q0 15 -18 39q-21 27 -36 43q-8 8 -26 25q-11 11 -56 51q-11 10 -31 28l54 54l39 44q-13 7 -20 11q-23 14 -37 26q-46 42 -46 88q0 35 30 61q20 16 50 16q27 0 50 -9.5t41.5 -27.5t27.5 -33
q13 -22 13 -44t-13 -49.5t-42 -61.5q-34 -39 -71 -76q-5 -5 -12 -13l45 -43q46 -42 65 -60q32 -31 51 -56zM208 419q5 48 -48 57q-4 1 -11 1q-24 0 -36.5 -20t-9.5 -44q4 -32 35 -59q10 -9 32 -21q13 16 19 26q19 32 19 60z" />
    <glyph glyph-name="two" unicode="2" horiz-adv-x="392" 
d="M343 -13l-32 -21l-128 220q-13 -1 -21 0q-50 6 -61 48q-3 12 -3 24q0 16 5.5 27t17 14.5t14.5 3.5q20 0 42 -26q7 -8 18 -26q15 3 25 6q59 22 81 85q7 20 7 38q0 30 -17.5 51.5t-41.5 28t-49 6.5q-39 0 -79 -16q-13 -5 -33 -17l-39 53q23 10 39 14q52 15 102 15
q64 0 108.5 -53.5t44.5 -128.5q0 -69 -61 -110q-20 -13 -61 -27z" />
    <glyph glyph-name="three" unicode="3" horiz-adv-x="383" 
d="M333 181q-16 -44 -63 -68q-15 -7 -44 -15l80 -113l-32 -19l-83 125h-18q-44 5 -69 36q-12 15 -12 36q0 19 10 33t28 14q25 0 46 -28q7 -9 17 -29q26 0 41 6q25 11 43 37q6 8 9 18.5t3 17.5q0 24 -20 48q-6 8 -20 19h-125q-11 1 -16 3q-17 6 -22 22q-7 24 8 25.5l25 2.5
h85q24 10 35 16q35 21 30 43q-6 29 -37 41q-10 3 -30 6h-137l-25 56h154q21 -3 33 -8q37 -16 60 -56q17 -30 17 -58t-17 -53q-5 -8 -17 -20q23 -16 34 -28q34 -37 34 -78q0 -18 -5 -32z" />
    <glyph glyph-name="four" unicode="4" horiz-adv-x="505" 
d="M465 416l-171 -170q29 -23 44 -38q46 -46 53 -84q4 -27 -16 -57q-26 -39 -77 -39q-57 0 -102 35t-45 84q0 40 36 82q12 14 37 35l-189 189l36 19l183 -181l179 181zM331 144q-4 24 -33 53q-9 9 -29 24q-19 -16 -28 -27q-29 -32 -36 -60q-3 -9 -3 -18q0 -22 18 -33.5
t40 -11.5q7 1 10 1q30 6 47.5 25.5t13.5 46.5z" />
    <glyph glyph-name="five" unicode="5" horiz-adv-x="447" 
d="M420 -29l-33 -16l-95 233q-6 -6 -28 -17q-32 -16 -57 -16q-60 0 -108 50q-43 45 -54 104q-1 4 -1 16q0 40 10.5 99.5t23.5 77.5l59 -49q-9 -5 -28 -93q-12 -55 -12 -88q0 -34 22 -52.5t55 -18.5q38 0 70 27q9 8 13 15.5t7 19.5q-21 18 -21 38q0 9 4 14q11 12 27 12
q22 0 43.5 -18.5t18.5 -37.5q-3 -21 -6.5 -32.5t-13.5 -20.5z" />
    <glyph glyph-name="six" unicode="6" horiz-adv-x="406" 
d="M392 -20l-36 -18l-62 130q-5 -2 -13 -3t-22 -1q-18 0 -40.5 4.5t-45.5 15.5q-43 19 -70 53.5t-31 74.5q0 29 18 59q6 10 18 24q-22 20 -32 33q-33 41 -33 76q0 49 56 71q18 7 57 12h120l25 -53h-143q-22 -6 -32 -12q-33 -18 -33 -46q0 -11 6 -25q10 -21 28 -29.5t42 -8.5
q8 0 18.5 1.5t15.5 2.5q17 4 42 4q23 0 37 -5.5t22 -22.5q4 -8 4 -16q0 -9 -5.5 -14.5t-20.5 -5.5q-4 0 -20 3t-42 3q-17 0 -33 -2t-32 -13q-36 -23 -36 -65q0 -29 23 -51q16 -14 32.5 -20.5t31.5 -6.5q20 0 39 9q6 3 15 9q-2 4 -3 7q-8 19 -8 31q0 15 8.5 20t17.5 5
q20 0 42.5 -15.5t26.5 -26.5t4 -17q0 -20 -16 -40q-2 -3 -9 -9z" />
    <glyph glyph-name="seven" unicode="7" horiz-adv-x="478" 
d="M436 230q1 -11 1.5 -19t0.5 -13q0 -50 -17.5 -90t-55.5 -66.5t-87 -26.5q-67 0 -124 55q-41 42 -66 121q-8 27 -20.5 75.5t-22.5 117.5q-3 22 -8 60l34 7q1 -19 3 -40.5t11.5 -75t21.5 -95.5t34.5 -80t57.5 -63.5t75 -25.5q7 0 17 2t21 5q48 16 68 76q6 20 10 57
q-7 -6 -13 -9q-18 -9 -43 -9q-48 0 -83.5 30.5t-35.5 72.5q0 5 2 17q7 32 33 52t60 20q10 0 15 -1q46 -7 76 -49.5t35 -104.5zM384 245q0 2 1 8t1 13q0 26 -9 44t-22.5 28.5t-29.5 10.5q-20 0 -36.5 -12.5t-20.5 -29t-4 -27.5q0 -34 29 -51q8 -5 18.5 -8t18.5 -3q25 0 46 18
q3 3 8 9z" />
    <glyph glyph-name="eight" unicode="8" horiz-adv-x="438" 
d="M398 101q-17 -17 -29 -27q-74 -60 -153 -60q-62 0 -109 32q-54 37 -65 103q-1 5 -1 15q0 19 9 39.5t21 32.5l243 243l31 -50l-220 -222q-13 -12 -19 -20q-20 -27 -20 -59q0 -8 2.5 -26t24.5 -32.5t58 -14.5h12q8 2 12 2q53 7 112 48q19 13 48 39z" />
    <glyph glyph-name="nine" unicode="9" horiz-adv-x="374" 
d="M334 36q0 -32 -23 -54q-7 -7 -24 -16l-53 39q14 6 20 11q20 16 20 39q0 24 -26 54q-2 2 -111 128q-50 57 -57 67q-40 54 -40 102q0 58 55 91q30 18 61 18q26 0 52 -11.5t49 -31.5q45 -40 45 -91q0 -38 -32 -69q-19 -18 -41 -25.5t-42 -7.5q-24 0 -45 7q-3 1 -8 4
q33 -38 53 -61q52 -59 98 -108q31 -35 34 -39q15 -22 15 -46zM244 435q-11 27 -45 27q-21 0 -43 -11t-37 -29q-11 -15 -16.5 -30.5t-5.5 -27.5t4.5 -24.5t9.5 -18.5q8 -1 14 -1q19 0 39 5t42.5 19.5t32 32.5t9.5 37q0 13 -4 21z" />
    <glyph glyph-name="colon" unicode=":" horiz-adv-x="216" 
d="M169 359l-53 -54l-53 52l54 54zM169 107l-53 -54l-53 53l54 53z" />
    <glyph glyph-name="semicolon" unicode=";" horiz-adv-x="219" 
d="M168 331l-52 -51l-51 51l51 52zM153 126q11 -12 11 -30q0 -13 -8 -34.5t-12 -32.5q-8 -22 -22 -50q-5 -10 -15 -27l-24 19q5 9 7 13q8 15 10 23q5 11 10 26.5t5 26.5q0 15 -10 28q-5 7 -19 18q-4 3 -12 10l35 53q10 -9 16 -14q14 -13 28 -29z" />
    <glyph glyph-name="less" unicode="&#x3c;" horiz-adv-x="320" 
d="M355 425h-94v-94q-2 -9 -5 -12.5t-7.5 -4.5t-8.5 -2h-122q-9 -3 -13 -6q-14 -10 -14 -27q0 -3 3.5 -19t17.5 -29q4 -4 13 -8q13 7 22 10q29 11 52 11t41.5 -9.5t32.5 -33.5q6 -11 10 -20q8 -19 8 -37t-9.5 -35.5t-32.5 -36.5q-17 -13 -44 -23q-8 -3 -23 -7l101 -102
l-18 -18l-112 111q-15 2 -24 5q-28 9 -48 29q-12 12 -17 23.5t-5 20.5q0 13 8.5 21.5t21.5 8.5q14 0 24 -10l38 -38q13 3 23 5.5t24 8.5q27 13 42.5 29.5t15.5 34.5q0 8 -5 16q-8 12 -24 12q-12 0 -36 -8.5t-28 -9.5q-26 -3 -49 14.5t-45 47.5q-17 24 -23 40.5t-6 31.5
q0 30 31 41q10 3 32 5h105v64h-207l-34 52h354z" />
    <glyph glyph-name="equal" unicode="=" horiz-adv-x="394" 
d="M430 425h-148q15 -18 23 -29q25 -35 31 -58q2 -10 2 -14q0 -30 -36 -48q-12 -6 -37 -13q23 -15 35 -24q39 -29 52 -50q18 -29 18 -60q0 -63 -52 -93q-31 -19 -69 -19q-70 0 -131 64q-31 34 -59 82q-9 15 -21 40l27 13q7 -16 11 -25q13 -28 25 -45q35 -50 57 -64t50 -14
q10 -1 14 -1q36 0 63 24t27 53q-1 6 -1 9q-6 37 -38 67q-10 9 -31 22q-3 2 -5 2q-9 3 -17 3q-17 0 -42 -11q-8 -3 -14 -3q-19 0 -34 17t-15 35t20 18q6 0 19.5 -2.5t33.5 -2.5q21 0 38 5q2 0 6 2q22 6 31 11q30 17 24 45q-7 31 -30 55q-4 4 -11 9h-245l-36 52h429z" />
    <glyph glyph-name="greater" unicode="&#x3e;" horiz-adv-x="359" 
d="M604 425h-322q15 -18 23 -29q25 -35 31 -58q2 -10 2 -14q0 -30 -36 -48q-12 -6 -37 -13l15 -10q20 -13 35 -25q18 21 39 35q36 24 70 24q7 -1 10 -1q41 -5 71.5 -42t30.5 -76q0 -42 -26 -90q-8 -16 -27 -41l-52 30q5 8 8 13q25 39 33 53.5t13.5 32.5t5.5 35q0 21 -11 34
t-33 13q-24 0 -50 -15.5t-45 -44.5q18 -29 18 -60q0 -62 -52 -92q-31 -19 -69 -19q-70 0 -131 64q-31 34 -59 82q-9 15 -21 40l27 13q7 -16 11 -25q13 -28 25 -45q35 -50 57 -64t50 -14q10 -1 14 -1q36 0 63 24t27 53q-1 6 -1 9q-6 37 -38 67q-10 9 -31 22q-3 2 -5 2
q-9 3 -17 3q-17 0 -42 -11q-8 -3 -14 -3q-19 0 -34 17t-15 35t20 18q6 0 19.5 -2.5t33.5 -2.5q21 0 38 5q2 0 6 2q22 6 31 11q30 17 24 45q-7 31 -30 55q-4 4 -11 9h-245l-36 52h604z" />
    <glyph glyph-name="question" unicode="?" horiz-adv-x="453" 
d="M422 322q-14 -41 -49 -81q-11 -13 -32 -32l-105 -104l-41 43l133 134q20 21 29 35q30 45 30 85q0 36 -22.5 59.5t-64.5 23.5q-7 0 -28 -3t-49 -16q-10 -4 -25 -14l-38 45q17 12 29 18q39 19 77 19q19 0 28.5 -1.5t26.5 -7.5q52 -18 80 -63t28 -96q0 -26 -7 -44zM303 -3
l-57 -57l-55 54l58 58z" />
    <glyph glyph-name="at" unicode="@" horiz-adv-x="362" 
d="M653 425h-343v-169q2 -2 4 -2q13 -5 28 -5q13 0 19.5 1.5t18.5 6.5q32 12 47 31q2 3 6 10q-4 7 -6 11q-6 13 -6 25q0 13 8 22t26 9q28 0 52.5 -19t20.5 -44q-3 -15 -17 -27q-4 -4 -13 -9l39 -87v-24q-24 -6 -38 -11q-41 -15 -65 -36q-19 -17 -19 -45q0 -20 12 -34.5
t38 -14.5q9 -1 13 -1q29 0 56 17q9 5 21 17l42 -42q-15 -9 -26 -13q-35 -14 -66 -14q-19 0 -33.5 3t-34.5 14q-28 14 -43.5 42.5t-15.5 55.5v10q2 6 2 8q11 39 59 60q16 7 47 14l-28 59q-6 -3 -10 -4q-20 -9 -27.5 -11.5t-21 -4.5t-25.5 -2q-22 0 -45 6q-7 2 -19 6v-235
l-53 39v159l-166 -115l-41 35l207 138q-17 15 -27 22q-32 24 -50 29.5t-35 5.5q-25 0 -53 -10q-9 -3 -23 -10l-38 42q17 8 29 11q38 12 72 12q39 0 86 -39q15 -13 39 -39v146h-257l-35 52h654z" />
    <glyph glyph-name="A" unicode="A" horiz-adv-x="362" 
d="M646 425h-336v-169q2 -2 4 -2q13 -5 28 -5q13 0 19.5 1.5t18.5 6.5q27 10 41 25q4 5 9 14l-3 6q-7 16 -7 29q0 15 8.5 24.5t26.5 9.5q28 0 52.5 -19t20.5 -44q-3 -15 -17 -27q-4 -4 -13 -9l50 -43v-91h-117q-13 -1 -19 -3q-19 -7 -19 -24q0 -11 13.5 -15t32.5 -4h8.5h2.5
h102v-44h-94q-14 -3 -20 -6q-20 -10 -20 -31q0 -3 3 -18t14.5 -23t28.5 -8q14 0 27.5 3t34.5 10l59 23v-57q-9 -5 -16 -7q-21 -7 -47 -7q-9 0 -19.5 0.5t-33.5 7.5q-36 9 -66 30q-36 26 -36 56q0 10 4 21t23 20q6 3 18 7q-20 9 -30 15q-30 20 -30 48q0 7 1 11q5 24 39 34
q11 3 33 6h73v38l-35 31q-7 -3 -12 -5q-22 -9 -30 -12t-21.5 -5t-25.5 -2q-22 0 -45 6q-7 2 -19 6v-235l-53 39v160l-166 -116l-41 35l207 138q-17 15 -27 22q-32 24 -50 29.5t-35 5.5q-25 0 -53 -10q-9 -3 -23 -10l-38 42q17 8 29 11q38 12 72 12q39 0 86 -39
q15 -13 39 -39v146h-257l-35 52h647z" />
    <glyph glyph-name="B" unicode="B" horiz-adv-x="374" 
d="M408 425h-100v-223q-3 -20 -10 -28q-13 -14 -36 -14q-8 -1 -20.5 -0.5t-24.5 2.5l-36 50l35 -1q31 0 39 20q2 6 1 20v174h-156v-232q-2 -21 6 -35q12 -21 47 -46q92 -58 184 -115q12 -10 17.5 -20.5t5.5 -21.5q0 -21 -16 -40q-2 -3 -9 -8l-53 36q6 4 8 7q8 10 8 21
q0 14 -16 29q-42 38 -143 91q-53 28 -76 54q-14 16 -15 39v241h-48l-35 52h408z" />
    <glyph glyph-name="C" unicode="C" horiz-adv-x="424" 
d="M458 425h-141v-140q9 6 14 10q19 14 31 19.5t25 7.5t19 2h7t5 -1v-44q-6 1 -15.5 -1t-34.5 -16t-42 -27q-3 -2 -9 -8v-227l-53 38v137q-17 -16 -29 -23q-36 -23 -71 -23q-39 0 -70.5 24.5t-48.5 66.5q-10 25 -10 49q0 39 24.5 65.5t75.5 26.5q46 0 92 -41q15 -13 37 -41
v146h-265l-35 52h460zM264 239q-14 23 -26 34q-36 34 -87 34q-37 0 -60 -18t-23 -45q0 -7 3 -15q9 -26 28.5 -39t42.5 -13q19 0 40 8q33 13 60 34q9 7 22 20z" />
    <glyph glyph-name="D" unicode="D" horiz-adv-x="424" 
d="M458 425h-141v-140q9 6 14 10q19 14 31 19.5t25 7.5t19 2h7t5 -1v-44q-6 1 -15.5 -1t-34.5 -16t-42 -27q-3 -2 -9 -8v-227l-53 38v137q-17 -16 -29 -23q-36 -23 -71 -23q-39 0 -70.5 24.5t-48.5 66.5q-10 25 -10 49q0 39 24.5 65.5t75.5 26.5q46 0 92 -41q15 -13 37 -41
v146h-265l-35 52h460zM149 48l-53 -54l-53 53l54 53zM264 239q-14 23 -26 34q-36 34 -87 34q-37 0 -60 -18t-23 -45q0 -7 3 -15q9 -26 28.5 -39t42.5 -13q19 0 40 8q33 13 60 34q9 7 22 20z" />
    <glyph glyph-name="E" unicode="E" horiz-adv-x="375" 
d="M594 425h-275v-134q20 11 31 16q35 16 55 16q45 0 77.5 -40t32.5 -92v-11q-3 -35 -29 -80q-8 -15 -26 -39l-42 39q12 15 18 24q22 31 30 48q12 26 12 47q0 24 -15 39t-49 15q-25 0 -62 -24q-12 -8 -33 -25v-225l-52 39v135q-18 -14 -30 -21q-38 -22 -71 -22q-40 0 -72 23
t-49 65q-9 23 -9 48q0 40 23 65q27 29 78 29q45 0 92 -41q15 -13 38 -42v148h-267l-36 52h595zM267 237q-15 23 -27 34q-37 34 -87 34q-37 0 -59.5 -18.5t-22.5 -46.5q0 -5 2 -13q7 -25 25 -37t41 -12q15 0 22.5 1.5t22.5 7.5q34 13 61 32q9 6 22 18z" />
    <glyph glyph-name="F" unicode="F" horiz-adv-x="375" 
d="M597 425h-278v-134q20 11 31 16q35 16 55 16q45 0 77.5 -40t32.5 -92v-11q-3 -35 -29 -80q-8 -15 -26 -39l-42 39q12 15 18 24q22 31 30 48q12 26 12 47q0 24 -15 39t-49 15q-25 0 -62 -24q-12 -8 -33 -25v-225l-52 39v135q-18 -14 -30 -21q-38 -22 -71 -22q-40 0 -72 23
t-49 65q-9 23 -9 48q0 40 23 65q27 29 78 29q45 0 92 -41q15 -13 38 -42v148h-267l-36 52h598zM149 48l-53 -54l-53 53l54 53zM267 237q-15 23 -27 34q-37 34 -87 34q-36 0 -59.5 -18.5t-23.5 -44.5q0 -7 3 -15q9 -25 27 -37t40 -12q13 0 22 2t22 7q34 13 61 32q9 6 22 18z
" />
    <glyph glyph-name="G" unicode="G" horiz-adv-x="375" 
d="M587 425h-268v-144q17 14 27 21q33 22 57 22q48 0 78.5 -37.5t30.5 -88.5q0 -30 -27 -77q-9 -15 -27 -41l-41 45q13 17 20 26q22 31 29 48t7 34q0 21 -11.5 34.5t-30.5 13.5q-18 0 -43 -12.5t-49 -34.5q-8 -7 -20 -20v-215l-52 39v142l-191 -154l-34 32l104 83
q-27 7 -42 14q-45 22 -59 64q-7 20 -7 42q0 70 68 91q10 3 15 4t15 1q44 0 92 -38q16 -12 39 -39v145h-266l-37 52h588zM267 239q-12 18 -21 28q-29 30 -69 40q-12 3 -25 3q-34 0 -58 -20t-24 -53q0 -25 24.5 -40t56.5 -15q9 0 14 1q38 6 73 31q12 8 29 25z" />
    <glyph glyph-name="H" unicode="H" horiz-adv-x="403" 
d="M624 425h-275v-101q9 4 15 6q19 6 39 6q15 0 28 -2.5t28 -9.5q29 -13 56.5 -52.5t27.5 -79.5q0 -10 -1 -15q-7 -51 -38 -95q-5 -7 -14 -17l-44 41q10 13 15 21q18 26 26 39q17 30 17 57q0 30 -19 49t-49 19q-37 0 -65 -14q-9 -4 -22 -15v-263l-53 40v242h-54
q-27 -2 -41 -10q-25 -14 -39 -41q-5 -10 -9 -22t-4 -25q0 -18 8.5 -40t28.5 -48q13 -17 33 -39q7 -8 22 -23l-24 -20l-57 63q-24 31 -47 63q-20 33 -20 69q0 27 16 52q5 8 17 21h-72l-31 48h273v96h-297l-35 52h622z" />
    <glyph glyph-name="I" unicode="I" horiz-adv-x="327" 
d="M411 425h-116l-36 52h117zM393 256q-18 -12 -30 -17q-38 -18 -68 -18q-45 0 -88 25q-14 8 -34 26q-22 -10 -33 -17q-35 -22 -49 -47q-9 -18 -9 -36q0 -23 12 -42t31 -24q6 -2 17 -2q16 0 37 8q3 1 8 4l-6 25q-2 3 -3 6t-1 8q0 7 5 13.5t22 6.5q21 0 39.5 -13.5
t27.5 -45.5q2 -8 -3 -15q0 -1 -3 -2l-26 -19l41 -107l-26 -14l-43 106q-4 -1 -9 -1.5t-14 -0.5q-22 0 -42 4t-44 16q-32 17 -53 48.5t-21 65.5q0 17 7.5 37t42.5 44q12 8 35 21q-26 14 -38 24q-39 32 -39 69q0 41 27 62.5t65 21.5q14 0 26 -3q40 -10 64.5 -43t24.5 -69
q0 -27 -23 -52q-7 -8 -24 -19q13 -7 21 -10q27 -10 53 -10q12 0 26 3q31 8 68 28q12 6 29 18v-63zM186 354q10 16 10 32q0 20 -13 36t-33 21q-3 1 -10 1q-20 0 -33 -12q-18 -16 -18 -47q0 -28 27 -50q9 -7 28 -17q11 7 17 11q18 13 25 25z" />
    <glyph glyph-name="J" unicode="J" horiz-adv-x="382" 
d="M449 186q-17 -14 -29 -21q-36 -21 -72 -21q-15 0 -31 4t-31 14q-59 33 -59 94q0 13 3 28q8 37 38.5 57t67.5 20q47 -4 85 -39q12 -11 28 -34v-102zM454 425h-299v-150q1 -15 0 -23q-4 -26 -20 -41q-12 -10 -29 -16q-6 -2 -16 -4q7 -17 14 -28q21 -34 54 -57
q24 -17 58 -26.5t65 -9.5q20 0 38 3q45 10 91 33q16 8 39 23v-57q-20 -18 -35 -26q-46 -26 -98 -26q-92 0 -172 66q-29 24 -55 56q-21 26 -37 54q-9 17 -15.5 35.5t-6.5 30.5q0 19 14 20q10 2 27.5 -6.5t21.5 -8.5q9 0 9 15v143h-102l-35 52h454zM446 250q-12 21 -22 31
q-32 32 -77 32q-48 0 -72 -20q-20 -17 -20 -41q0 -4 2 -12q6 -23 26.5 -35t46.5 -12q14 0 31 5q29 8 60 31q10 7 25 21z" />
    <glyph glyph-name="K" unicode="K" horiz-adv-x="382" 
d="M449 186q-17 -14 -29 -21q-36 -21 -72 -21q-15 0 -31 4t-31 14q-59 33 -59 94q0 13 3 28q8 37 38.5 57t67.5 20q47 -4 85 -39q12 -11 28 -34v-102zM454 425h-299v-150q1 -15 0 -23q-4 -26 -20 -41q-12 -10 -29 -16q-6 -2 -16 -4q7 -17 14 -28q21 -34 54 -57
q24 -17 58 -26.5t65 -9.5q20 0 38 3q45 10 91 33q16 8 39 23v-57q-20 -18 -35 -26q-46 -26 -98 -26q-92 0 -172 66q-29 24 -55 56q-21 26 -37 54q-9 17 -15.5 35.5t-6.5 30.5q0 19 14 20q10 2 27.5 -6.5t21.5 -8.5q9 0 9 15v143h-102l-35 52h454zM164 -16l-54 -54l-53 53
l54 54zM446 250q-12 21 -22 31q-32 32 -77 32q-48 0 -72 -20q-20 -17 -20 -41q0 -4 2 -12q6 -23 26.5 -35t46.5 -12q14 0 31 5q29 8 60 31q10 7 25 21z" />
    <glyph glyph-name="L" unicode="L" horiz-adv-x="382" 
d="M453 207q-19 -18 -32 -27q-41 -28 -80 -28q-13 0 -25 2t-24 8q-30 12 -47 39.5t-17 61.5q0 7 2 21q7 39 39 59.5t70 20.5q43 0 83 -41q13 -13 31 -42v-74zM453 77l-305 -127l-26 44l137 48q-24 3 -39 7q-47 13 -83 44q-30 24 -47 46q-13 17 -38 57q-9 15 -15.5 32
t-6.5 32q0 17 14 23q5 2 22 -7.5t24 -9.5q10 0 10 16v143h-101l-35 52h442l35 -52h-288v-150q0 -17 -1 -26q-6 -30 -29 -46q-8 -6 -25 -10q-2 0 -7 -2q5 -8 9 -13q24 -35 54 -57q25 -19 56.5 -27.5t67.5 -8.5q38 0 71.5 10t69.5 25q13 5 34 16v-59zM450 257q-17 21 -29 31
q-37 31 -77 31q-45 0 -69 -30q-19 -23 -19 -49q0 -25 16 -37t40 -12q22 0 45 9q31 12 65 35q11 8 28 22z" />
    <glyph glyph-name="M" unicode="M" horiz-adv-x="228" 
d="M294 425h-147v-232q0 -14 -13 -24t-28 -6q-12 3 -40 38t-30 45q-3 19 8.5 24t30.5 5q20 0 20 5v145h-96l-35 52h296z" />
    <glyph glyph-name="N" unicode="N" horiz-adv-x="228" 
d="M294 425h-147v-232q0 -14 -13 -24t-28 -6q-12 3 -40 38t-30 45q-3 19 8.5 24t30.5 5q20 0 20 5v145h-96l-35 52h296zM158 53l-54 -53l-52 52l54 54z" />
    <glyph glyph-name="O" unicode="O" horiz-adv-x="228" 
d="M291 425h-141v-226q0 -12 -10.5 -21.5t-23.5 -9.5q-5 0 -7 1q-13 4 -40.5 37.5t-29.5 44.5q-3 19 7.5 24.5t28.5 5.5h12q10 0 10 4v140h-95l-35 52h289zM291 121l-188 -108l-34 43l222 123v-58z" />
    <glyph glyph-name="P" unicode="P" horiz-adv-x="246" 
d="M314 147q-19 -16 -33 -23q-42 -23 -87 -23q-35 0 -68.5 15.5t-52.5 45.5q-10 16 -14 30t-4 28q0 34 26 65q8 10 26 24q-24 9 -35 16q-35 22 -35 52q0 21 14 40q2 3 7 8h-59l-35 52h315l35 -52h-189q-7 -2 -11 -4q-26 -15 -26 -50q0 -24 29 -41q9 -5 30 -12h56l28 -48h-78
q-21 -7 -31 -14q-31 -22 -31 -60q0 -29 16 -41.5t43 -12.5q26 0 57 10.5t50 23.5q26 17 48 35q3 3 9 7v-71z" />
    <glyph glyph-name="Q" unicode="Q" horiz-adv-x="246" 
d="M314 149l-236 -140l-32 47l101 56q-27 11 -41 20q-43 29 -50 74q-1 6 -1 17q0 35 26 64q8 9 26 22q-24 9 -35 16q-35 22 -35 52q0 21 14 40q2 3 7 8h-59l-35 52h315l35 -52h-189q-7 -2 -11 -4q-26 -15 -26 -50q0 -24 29 -41q9 -5 30 -12h56l28 -48h-86q-18 -7 -27 -13
q-27 -20 -27 -52q0 -9 1 -14q5 -26 22 -38t42 -12q22 0 46.5 7t42.5 17q30 15 57 38q5 4 12 11v-65z" />
    <glyph glyph-name="R" unicode="R" horiz-adv-x="394" 
d="M489 272l-48 -48l-47 47l47 48zM544 425h-203v-113h-135q-16 0 -23 -2q-24 -8 -28 -36q-3 -21 7 -38t32 -17q11 0 23 4q40 15 70 15q43 0 72 -33q35 -41 35 -84q0 -32 -20 -58.5t-50 -39t-59 -12.5q-38 0 -76 19.5t-78 58.5q-27 25 -60 68q-11 15 -29 41l25 14
q8 -15 14 -24q18 -27 38 -49q33 -35 62 -52q37 -22 79 -22q14 0 21 1q46 6 70.5 29.5t24.5 51.5q0 17 -8.5 28t-23.5 11q-12 0 -44 -9.5t-49 -9.5h-10q-34 0 -72 42q-41 45 -41 91q0 40 33 56q11 5 34 8h114v61h-289l-36 52h552z" />
    <glyph glyph-name="S" unicode="S" horiz-adv-x="304" 
d="M373 425h-374l-35 52h372zM372 163q-15 -13 -25 -19q-30 -20 -60 -27q-15 -4 -33 -4q-46 0 -85 26t-50 63q-4 12 -4 25q0 30 16 58q2 5 9 12h-85l-26 50h250l36 -50h-88q-21 -9 -31 -17q-32 -27 -32 -71q0 -57 57 -57q17 0 41 8q42 15 79 44q13 10 31 28v-69z" />
    <glyph glyph-name="T" unicode="T" horiz-adv-x="304" 
d="M367 425h-368l-35 52h367zM367 160l-251 -151l-35 48l120 67q-22 10 -34 18q-38 26 -48 60q-4 12 -4 25q0 30 16 58q2 5 9 12h-85l-26 50h250l36 -50h-88q-21 -9 -31 -17q-32 -26 -32 -66q0 -62 56 -62q18 0 42 8q41 15 76 36q12 7 29 20v-56z" />
    <glyph glyph-name="U" unicode="U" horiz-adv-x="419" 
d="M512 425h-142v-48q24 -23 36 -39q36 -50 36 -105v-12q-2 -8 -2 -12q-7 -52 -47 -97.5t-98 -68.5q-45 -18 -87 -18q-62 0 -107 41q-21 18 -30.5 37.5t-9.5 37.5q0 24 14 46q4 7 15 18q-13 7 -20 11q-23 15 -33 30q-15 20 -15 44q0 21 12.5 38.5t33.5 25.5q11 4 27 7.5
t26 3.5q24 0 46 -9q7 -3 17 -9l18 -46q-6 3 -11 5q-32 12 -70 12q-25 0 -41 -14t-16 -33q0 -4 2 -9.5t5 -10.5q13 -18 45 -23q10 -1 29 -2h64l24 -53h-86q-16 -4 -24 -8q-25 -13 -25 -38q0 -9 2 -15q6 -22 26 -32.5t48 -10.5q25 0 53 7.5t50 18.5q35 18 60 41q8 7 17 18
q-12 8 -19 12q-24 16 -41 29q-25 19 -39 42.5t-14 48.5q0 18 12.5 41t39.5 38q8 5 24 10v50h-318l-35 52h512zM390 266q0 32 -11.5 56t-31.5 24q-26 0 -38.5 -18t-12.5 -43q1 -9 1 -13q5 -41 38 -72q11 -10 33 -24q8 16 11 26q11 32 11 64z" />
    <glyph glyph-name="V" unicode="V" horiz-adv-x="321" 
d="M390 425h-391l-35 52h390zM385 289h-152q7 -8 11 -12q26 -29 33 -50q3 -11 3 -22q0 -31 -23.5 -52.5t-61.5 -21.5q-10 0 -16 1q-39 6 -70 37q-26 26 -51 75l-34 74l24 8q9 -20 15 -32q17 -34 33 -58q35 -57 83 -57q14 0 26 6q26 15 26 40q0 23 -23 54q-12 14 -34 33
q-7 6 -21 17l10 12h222v-52z" />
    <glyph glyph-name="W" unicode="W" horiz-adv-x="321" 
d="M390 425h-391l-35 52h390zM385 289h-152q7 -8 11 -12q26 -29 33 -50q3 -12 3 -23q0 -31 -22.5 -53.5t-59.5 -22.5q-12 0 -18 1q-37 5 -70 38q-27 27 -52 77l-34 74l24 8q9 -20 15 -32q17 -34 33 -58q35 -57 83 -57q14 0 26 6q26 15 26 40q0 23 -23 54q-12 14 -34 33
q-7 6 -21 17l10 12h222v-52zM237 43l-53 -52l-52 51l53 55z" />
    <glyph glyph-name="X" unicode="X" horiz-adv-x="321" 
d="M391 425h-391l-35 52h389zM390 300h-151q7 -6 11 -10q25 -27 32 -53q3 -12 3 -23q0 -31 -21.5 -51.5t-57.5 -20.5q-14 0 -22 2q-32 6 -66 40q-28 29 -53 72q-8 14 -27 55q-2 6 -7 16l24 11q9 -19 14 -31q18 -39 31 -60q39 -58 86 -58q14 0 26 6q25 14 25 43q0 24 -21 53
q-17 22 -43 41q-4 3 -13 8l10 11h220v-51zM390 125l-210 -118l-35 44l245 126v-52z" />
    <glyph glyph-name="Y" unicode="Y" horiz-adv-x="287" 
d="M352 425h-353l-35 52h353zM355 312h-220q18 -9 28 -15q33 -19 48 -33q40 -36 40 -82q0 -41 -33 -71q-15 -14 -40 -26q-8 -4 -23 -9l84 -98l-23 -21l-92 110q-11 0 -23.5 1t-31.5 11.5t-29.5 27t-10.5 31.5q0 34 29 40q15 2 38 -21q7 -7 20 -24q8 -1 13 -1q18 0 31 8
q21 13 28 41q2 10 2 15q0 30 -27 61q-23 25 -60 46q-18 11 -43 21q-9 3 -25 9l15 28h305v-49z" />
    <glyph glyph-name="Z" unicode="Z" horiz-adv-x="316" 
d="M384 203q-13 -4 -20 -5q-23 -5 -40 -5q-22 0 -49 7q-4 1 -11 4q6 -10 9 -17q10 -23 10 -42q0 -18 -7 -33t-24 -31q-22 -21 -62 -34q-13 -4 -37 -9l65 -78l-27 -20l-71 92q-13 0 -21 1q-24 5 -42.5 23t-18.5 37q0 15 10.5 24.5t26.5 9.5q10 0 19 -4q16 -8 26 -24
q3 -5 7 -15q10 2 17 3q20 5 43 16q27 14 42 29q19 18 19 35q0 7 -4 14q-7 13 -24 13q-12 0 -27.5 -5.5t-34.5 -12.5q-27 -4 -52 15q-21 15 -44 48q-16 23 -23 41.5t-7 32.5q0 30 32 41q10 3 33 5h114v66h-212l-33 52h374l34 -52h-109v-97q-2 -9 -5 -12.5t-7 -4.5l-8 -2h-133
q-10 -3 -14 -6q-14 -9 -14 -27q0 -3 2 -13q6 -24 23 -34q5 -3 16 -5q11 7 18 10q21 10 38 10q24 0 43 -6q6 -2 15 -7q6 0 11.5 -0.5t12.5 -0.5h20q17 2 25 3q30 5 63 21q5 2 13 8v-59z" />
    <glyph glyph-name="bracketleft" unicode="[" horiz-adv-x="334" 
d="M399 208q-18 -5 -28 -7q-33 -7 -57 -7t-49 6q-4 1 -12 4q6 -10 8 -16q9 -22 9 -41q0 -16 -5.5 -31.5t-19.5 -30.5q-21 -22 -61 -35q-13 -4 -37 -8l63 -78l-26 -20l-71 92q-13 0 -21 1q-24 5 -42.5 21t-18.5 37q0 15 10 25t26 10q9 0 22.5 -6.5t29.5 -26.5l6 -9q9 2 15 3
q16 4 40.5 15.5t40 29t15.5 34.5q0 9 -5 17q-8 12 -23 12q-13 0 -28 -5.5t-33 -12.5q-26 -3 -52 16q-21 15 -42 46q-17 24 -23 40.5t-6 31.5q0 30 31 41q10 3 32 5h113v64h-199l-34 52h382l35 -52h-132v-94q-2 -9 -5.5 -13t-7 -4.5t-7.5 -1.5h-131q-9 -3 -13 -6
q-14 -10 -14 -27q0 -3 2 -13q6 -22 23 -32q5 -3 16 -5q11 6 18 9q23 10 37 10q24 0 42 -6q6 -2 15 -7q11 -1 19 -1q19 0 50 3.5t70 15.5q13 4 33 12v-57zM399 98l-110 -95l-32 36l142 107v-48z" />
    <glyph glyph-name="backslash" unicode="\" horiz-adv-x="324" 
d="M388 425h-389l-35 52h387zM391 215h-61q-11 -27 -22 -41q-35 -44 -92 -50q-5 -1 -15 -1q-34 0 -68 18q-27 14 -60 44q-13 13 -39 44q-4 5 -11 14l24 20q5 -9 9 -14q10 -14 25 -28q28 -27 53 -39.5t49 -12.5q37 0 71 31q12 10 17 23.5t5 29.5q0 22 -11.5 38.5t-28.5 16.5
q-23 0 -49 -23q-8 -7 -21 -23l-45 43q11 13 20 19q29 20 66 20q12 0 29 -3q42 -9 68 -46q8 -12 17 -36h14t21.5 2t28.5 8l6 3v-57z" />
    <glyph glyph-name="bracketright" unicode="]" horiz-adv-x="333" 
d="M406 425h-126v-113q-3 -15 -8 -22q-16 -23 -54 -30q-81 -16 -119 -44q-31 -23 -31 -52q0 -11 3.5 -20.5t11.5 -21.5q30 -41 99 -41q11 0 23 1t25 4q33 7 70 24q13 5 33 17l28 -53q-26 -15 -43 -22q-55 -23 -105 -23h-16q-7 1 -10 1q-40 5 -82 34q-55 38 -75 94
q-4 12 -4 26q0 35 21 63q28 36 79 46.5t77 22.5q15 7 25 18v91h-229l-35 52h408z" />
    <glyph glyph-name="asciicircum" unicode="^" horiz-adv-x="323" 
d="M403 425h-135v-77q-1 -4 -1.5 -8t-4 -10.5t-16.5 -9.5q-2 0 -6 -1h-131q-24 -3 -33 -11q-16 -13 -16 -39q0 -32 34.5 -48t81.5 -16q18 0 35 3q40 6 73 21q11 5 28 15l25 -49q-6 -4 -10 -6q-16 -9 -30 -15t-29 -11q-5 -1 -12 -3v-89q-1 -3 -1.5 -6.5t-5 -10.5t-10 -9
t-11.5 -3h-124q-17 -2 -25 -6q-25 -12 -22 -40q4 -29 34.5 -44.5t71.5 -15.5q31 0 84 18q18 6 48 19l25 -46q-6 -3 -9 -5q-22 -12 -43 -18.5t-43.5 -11.5t-41.5 -5q-28 0 -61.5 11t-63.5 44q-34 37 -34 77q0 47 42 65q14 6 43 9h94v59q-18 1 -28 2q-31 4 -56 16
q-43 19 -69.5 51t-26.5 69q0 49 43 69q14 6 43 11h107v55h-216l-36 52h404z" />
    <glyph glyph-name="underscore" unicode="_" horiz-adv-x="323" 
d="M406 425h-135v-77q0 -4 -0.5 -8.5t-5.5 -11t-10.5 -7.5t-11.5 -2h-132q-24 -3 -33 -11q-16 -13 -16 -39q0 -31 35 -48t81 -17q19 0 36 3q39 6 73 22q11 5 27 15l26 -49q-7 -4 -11 -6q-18 -10 -28 -14q-17 -8 -35 -13q-3 0 -7 -2v-66q12 -7 18 -11q40 -26 53.5 -51
t13.5 -48q0 -36 -35 -63q-29 -22 -74 -30q-18 -3 -35 -3q-48 0 -88.5 23t-65.5 60q-12 18 -18 35t-6 30q0 26 16 42t43 20t96 9q11 0 30 1v44q-18 1 -29 2q-31 4 -56 16q-43 20 -70 51.5t-27 68.5q0 49 43 69q14 6 43 11h108v55h-219l-36 52h406zM296 3q0 33 -21 44.5
t-55 11.5h-23q-9 -2 -12 -2q-53 0 -77 -6q-47 -12 -47 -46q0 -27 40 -48q32 -17 71 -21q7 -1 13 -1h13q58 0 83 28q15 17 15 40z" />
    <glyph glyph-name="grave" unicode="`" horiz-adv-x="333" 
d="M425 425h-138q7 -9 10 -16q11 -22 11 -45q-1 -8 -1 -12q-2 -29 -14 -51q-3 -7 -11 -16q28 -20 42 -34q42 -43 42 -90q1 -6 1 -8q0 -55 -46.5 -91.5t-111.5 -36.5q-60 0 -117 39q-72 49 -72 129q0 43 25.5 71.5t68 34.5t60 7t37.5 1q11 0 22 -1q12 11 16 21q9 20 9 42
q0 29 -14 48q-2 3 -7 8h-238l-35 52h426zM315 153q6 18 6 32q0 37 -37 58q-12 7 -37 14q-6 1 -14.5 1.5t-23.5 0.5q-59 0 -93 -14q-53 -22 -53 -74q0 -40 34 -69t79 -29q44 0 85.5 23t53.5 57z" />
    <glyph glyph-name="a" unicode="a" horiz-adv-x="313" 
d="M405 425h-146v-66q21 -13 33 -22q37 -29 48 -60q6 -18 6 -31q0 -42 -43 -67q-14 -8 -44 -18v-72q17 -11 27 -18q31 -23 44 -44q17 -27 17 -52q0 -36 -37 -62q-33 -23 -75 -27q-10 -1 -17.5 -1.5t-12.5 -0.5q-99 0 -160 81q-12 16 -18 32.5t-6 28.5q0 25 15.5 42.5
t38 23.5t60.5 8t72 3v50q-20 0 -33 1q-75 9 -113 60q-19 26 -28.5 48.5t-9.5 39.5q0 24 14.5 38.5t38.5 22.5q11 4 93 9q14 0 38 2v51h-207l-36 52h405zM296 267q0 33 -27 46q-19 9 -54 9q-20 -1 -27 -1q-58 0 -82 -6q-45 -11 -45 -45q0 -30 37.5 -49t73.5 -19q6 -1 11.5 -1
h11.5q55 0 82 26q19 18 19 40zM296 -3q0 33 -24 46q-17 9 -51 9q-12 0 -20 -0.5t-13 -0.5q-58 0 -82 -6q-45 -11 -45 -45q0 -29 40 -49q32 -16 71 -20q6 -1 11 -1h10q48 0 78 24q25 20 25 43z" />
    <glyph glyph-name="b" unicode="b" horiz-adv-x="399" 
d="M455 425h-108v-113h-135h-13q-31 -5 -37 -38q-3 -20 7 -37.5t32 -17.5q11 0 23 4q20 7 37.5 11t33.5 4q21 0 38 -7.5t33.5 -26.5t25 -41t8.5 -42q0 -32 -19 -58.5t-49.5 -39t-59.5 -12.5q-38 0 -76 19.5t-78 58.5q-25 24 -59 69q-11 15 -29 42l25 12q8 -15 14 -24
q18 -27 38 -49q32 -35 61 -52q37 -22 78 -22q14 0 21 1q47 6 72 30t25 52q0 16 -8.5 27t-23.5 11q-12 0 -44 -9.5t-49 -9.5h-10q-35 0 -73 42q-41 45 -41 91q0 40 33 56q11 5 34 8h113v61h-295l-36 52h463z" />
    <glyph glyph-name="c" unicode="c" horiz-adv-x="399" 
d="M445 425h-107v-113h-135h-13q-32 -5 -37 -38q-3 -21 6.5 -38t31.5 -17q11 0 23 4q20 7 37.5 11t33.5 4q21 0 38 -7.5t33 -25.5q35 -41 35 -84q0 -33 -19.5 -59t-50 -38.5t-58.5 -12.5q-38 0 -76.5 19.5t-78.5 58.5q-27 26 -59 68q-11 15 -29 41l25 14q5 -9 8 -14
q20 -33 44 -59q32 -35 61 -52q37 -22 79 -22q14 0 21 1q47 6 72 30t25 52q0 16 -8.5 27t-24.5 11q-12 0 -44 -9.5t-49 -9.5h-10q-34 0 -74 43.5t-40 89.5q0 40 34 56q11 5 34 8h113v61h-286l-36 52h453zM298 -65l-48 -48l-47 47l47 48z" />
    <glyph glyph-name="d" unicode="d" horiz-adv-x="319" 
d="M377 425h-113v-107h-105q-15 -3 -22 -6q-22 -11 -18 -33q4 -21 18 -28q4 -2 14 -3q14 7 23 10q28 10 53 10q19 0 33 -4.5t26 -17.5q24 -27 24 -61q0 -28 -16 -50.5t-48 -32.5q-9 -3 -21.5 -4t-13.5 -1q-21 0 -39 6q-3 1 -7 3q-13 -2 -20 -3q-22 -6 -25 -15t-3 -13
q0 -19 19 -33q3 -2 10 -6q16 8 26 11q31 11 58 11q19 0 32 -4.5t24 -17.5q25 -30 25 -65q0 -28 -16 -49t-48 -30q-15 -4 -32 -4q-39 0 -80 23q-34 19 -68 53q-10 10 -31 37q-6 7 -16 21l22 14q5 -8 8 -12q19 -27 34 -40q28 -24 54 -37.5t57 -13.5q19 0 39.5 8t32 23.5
t11.5 31.5q0 23 -20 23q-9 0 -49 -13q-22 -7 -34 -7q-9 0 -17.5 2t-16.5 8q-18 12 -35.5 39.5t-21.5 48.5t9 33q4 4 15 9q-9 7 -14 11q-16 14 -27 25q-19 20 -34 39q-5 7 -13 19l22 13q5 -8 8 -12q19 -27 34 -40q25 -23 52.5 -36.5t57.5 -13.5q19 0 40.5 7.5t33 23.5
t11.5 33q0 25 -21 22q-24 -10 -42 -15.5t-35 -5.5q-13 0 -22.5 2.5t-23.5 10.5t-31 35q-20 31 -20 57q0 22 16 38t43 16h68v57h-212l-35 52h377z" />
    <glyph glyph-name="e" unicode="e" horiz-adv-x="319" 
d="M382 425h-113v-88h-107q-14 0 -20 -2q-20 -6 -20 -24q0 -24 15 -34q5 -3 15 -5q15 7 25 10q32 11 55 11q17 0 31.5 -5t27 -19t19 -28.5t6.5 -28.5q0 -29 -24 -54q-8 -8 -25 -20v-41q1 -7 1 -11q0 -13 -5 -17.5t-13.5 -4.5h-13.5h-113q-18 -8 -27 -14q-28 -20 -28 -49
q0 -16 6 -28q14 -31 60 -45q15 -4 43 -7q-4 11 -5 17q-5 20 -5 36q0 18 7 29q17 27 48 27q24 0 45 -18q27 -24 27 -57q0 -18 -7.5 -31.5t-25.5 -27.5q-23 -18 -66 -18q-46 0 -83 22q-44 26 -62 76q-5 13 -7 25.5t-2 22.5q0 41 32 65q10 8 33 16h114v24q-30 0 -50 6
q-33 11 -68 39t-60 60q-8 11 -19 28l21 13q9 -12 14 -19q17 -23 29 -33q24 -23 52.5 -36.5t59.5 -13.5q20 0 39 7.5t31 23t12 29.5q0 23 -20 20q-24 -8 -42.5 -13.5t-34.5 -5.5q-14 0 -23.5 2.5t-22.5 10t-31 34.5t-20 48q0 35 29 49q9 4 30 7h71v40h-218l-35 52h383z
M251 -61q20 13 20 32q0 12 -7.5 19.5t-20.5 7.5q-11 0 -22 -7q-22 -13 -28 -42q-1 -9 -1 -26q10 -1 22.5 1t36.5 15z" />
    <glyph glyph-name="f" unicode="f" horiz-adv-x="351" 
d="M424 425h-124v-133h-137q-10 0 -17 -1q-41 -8 -60 -43q-13 -25 -13 -54q0 -48 30 -83q15 -18 48 -32q10 -4 29 -10q-6 12 -8 20q-8 25 -8 50q0 20 4.5 35.5t16.5 31.5q23 27 61 27q32 0 58.5 -19t40.5 -59q6 -18 6 -36q0 -35 -20.5 -62.5t-55.5 -38.5q-12 -3 -18 -4
t-19 -1q-40 0 -82.5 21.5t-74.5 59.5q-27 35 -41.5 70t-14.5 72q0 13 3 27q11 55 66 73q18 6 54 7h99v82h-248l-35 52h424zM312 159q-13 31 -42 31q-37 0 -58 -39q-7 -15 -9.5 -28t-2.5 -29q0 -12 0.5 -17t2.5 -10q10 -2 17 -2q13 0 19.5 1.5t23.5 7.5q29 12 41.5 27.5
t12.5 33.5q0 11 -5 24z" />
    <glyph glyph-name="g" unicode="g" horiz-adv-x="351" 
d="M424 425h-124v-133h-137q-10 0 -17 -1q-41 -8 -60 -43q-13 -25 -13 -54q0 -48 30 -83q15 -18 48 -32q10 -4 29 -10q-6 12 -8 20q-8 25 -8 50q0 20 4.5 35.5t16.5 31.5q23 27 61 27q32 0 58.5 -19t40.5 -59q6 -18 6 -36q0 -35 -20.5 -62.5t-55.5 -38.5q-12 -3 -18 -4
t-19 -1q-40 0 -82.5 21.5t-74.5 59.5q-27 35 -41.5 70t-14.5 72q0 13 3 27q11 55 66 73q18 6 54 7h99v82h-248l-35 52h424zM275 -66l-48 -48l-47 47l48 48zM312 159q-13 31 -42 31q-37 0 -58 -39q-7 -15 -9.5 -28t-2.5 -29q0 -12 0.5 -17t2.5 -10q10 -2 17 -2q13 0 19.5 1.5
t23.5 7.5q29 12 41.5 27.5t12.5 33.5q0 11 -5 24z" />
    <glyph glyph-name="h" unicode="h" horiz-adv-x="326" 
d="M383 425h-106v-204q-9 -25 -17 -37q-26 -37 -71 -37q-16 0 -27 2t-30 10q-46 19 -66 60q-6 13 -11 37v169h-56l-35 52h385zM224 229v196h-117v-193l3 -15q11 -35 42 -38q32 -4 55 22q7 8 17 28z" />
    <glyph glyph-name="i" unicode="i" horiz-adv-x="237" 
d="M307 425h-307l-36 52h306zM303 289h-144q-26 -2 -39 -7q-39 -17 -39 -64q0 -34 15.5 -70.5t41.5 -72.5q15 -22 23 -31q3 -4 9 -10l-21 -19l-64 89q-25 38 -39 73.5t-14 66.5q0 64 54 87q18 7 54 10h163v-52z" />
    <glyph glyph-name="j" unicode="j" horiz-adv-x="201" 
d="M255 425h-255l-35 52h256zM269 190l-188 -123l-36 45l216 126q-8 10 -14 16q-19 20 -39 32q-26 15 -60 15q-19 0 -34.5 -2.5t-40.5 -12.5q-4 -1 -13 -6l-39 49q6 4 11 6q30 13 49 15.5t28 2.5q27 0 54.5 -10.5t52.5 -29.5q19 -14 38 -34q6 -6 15 -17v-72z" />
    <glyph glyph-name="k" unicode="k" horiz-adv-x="290" 
d="M350 425h-351l-35 52h351zM352 282h-126q-10 -1 -15 -3q-34 -13 -47 -61q-3 -9 -4 -18.5t-1 -20.5q0 -22 6.5 -42t20.5 -39.5t36 -42.5l22 -22l-21 -21l-14 14q-18 18 -28 31q-74 93 -74 152q0 35 16 62q2 4 9 11h-85l-31 51h336v-51z" />
    <glyph glyph-name="l" unicode="l" horiz-adv-x="261" 
d="M329 163q-21 -11 -34 -16q-44 -19 -63 -21t-30 -2q-35 0 -69 16t-55 38.5t-39 53.5q-3 5 -7 13l49 23q22 12 43 26l9 6q-11 1 -19 3q-22 6 -45.5 19.5t-36 35.5t-12.5 44q0 26 14.5 46t39 30.5t49.5 10.5q35 0 59 -15q57 -35 57 -95q0 -41 -32 -80q-25 -28 -76 -60
q-17 -10 -47 -26q13 -16 22 -23q30 -24 64 -24q11 0 23 3q56 12 102 40q15 9 34 25v-71zM192 392q0 26 -14 47q-18 26 -50 26q-8 0 -21 -2.5t-25.5 -22t-12.5 -44.5q0 -29 14 -44q12 -15 42 -26q9 -3 27 -8q14 12 20 20q20 26 20 54z" />
    <glyph glyph-name="m" unicode="m" horiz-adv-x="264" 
d="M329 169l-246 -149l-35 44l122 62q-27 7 -43 15q-25 13 -50 39q-18 18 -33 43q-5 8 -12 22l49 23q22 12 43 26l9 6q-11 2 -18 4q-22 7 -46 21t-36.5 34.5t-12.5 43.5q0 25 15.5 45.5t38 31t48.5 10.5q34 0 60 -16q56 -36 56 -95q0 -21 -7.5 -41t-23.5 -39
q-25 -28 -76 -60q-17 -10 -47 -26q11 -15 20 -22q29 -23 68 -23q14 0 21 1q58 8 102 33q15 8 34 25v-58zM192 392q0 26 -14 47q-18 26 -50 26q-8 0 -21 -2.5t-25.5 -22t-12.5 -44.5q0 -29 14 -44q12 -15 42 -26q9 -3 27 -8q14 12 20 20q20 26 20 54z" />
    <glyph glyph-name="n" unicode="n" horiz-adv-x="331" 
d="M394 425h-113v-89q0 -4 -2 -7t-9 -8t-13 -5.5t-10 -0.5h-112q-21 -1 -31 -5q-31 -14 -31 -56q0 -32 16 -56.5t36 -33.5q12 -6 23 -8t23 -2q16 0 31 5q2 0 5 2q-8 9 -11 15q-11 19 -8 35q3 12 22 12q27 0 57 -19.5t22 -41.5q-6 -16 -17 -26q-3 -3 -10 -7l61 -154l-31 -15
l-61 150q-5 -2 -13 -3.5t-17 -1.5q-23 0 -41 6q-26 9 -52 30q-37 30 -59 66.5t-22 71.5q0 20 10.5 43.5t40.5 35.5q10 4 28 7h122v60h-230l-35 52h396z" />
    <glyph glyph-name="o" unicode="o" horiz-adv-x="335" 
d="M403 425h-119v-99q0 -3 -0.5 -9.5t-4.5 -10t-10.5 -4t-12.5 -0.5h-100q-13 1 -20 0q-46 -6 -56 -49q-3 -12 -3 -25q0 -35 17.5 -65t46.5 -42q13 -5 25.5 -7.5t23.5 -2.5q19 0 36 8q2 1 7 4q-7 7 -10 11q-10 14 -10 29q0 7 3.5 16t18.5 9q24 0 53 -19.5t29 -38.5
q0 -14 -16 -31q-5 -5 -16 -14l60 -124q-13 0 -31 -2t-47.5 -15.5t-29.5 -36.5q0 -16 13.5 -26.5t36.5 -10.5q32 0 61 10q9 3 22 10l23 -43q-10 -6 -17 -9q-23 -9 -52 -9h-12q-9 2 -13 2q-45 7 -71.5 35t-26.5 62q0 25 16.5 43.5t47.5 25.5q10 2 27 4l-33 69q-6 -1 -16 -2
t-17 -1q-27 0 -50 6q-34 9 -62 29q-39 27 -61 71t-22 82q1 8 1 12q6 60 53 79q15 6 47 8h99v71h-232l-35 52h403z" />
    <glyph glyph-name="p" unicode="p" horiz-adv-x="331" 
d="M394 425h-113v-89q0 -4 -2 -7t-9 -8t-13 -5.5t-10 -0.5h-112q-21 -1 -31 -5q-31 -14 -31 -56q0 -32 16 -56.5t36 -33.5q12 -6 23 -8t23 -2q16 0 31 5q2 0 5 2q-8 9 -11 15q-11 19 -8 35q3 12 22 12q27 0 57 -19.5t22 -41.5q-6 -16 -17 -26q-3 -3 -10 -7l61 -154l-31 -15
l-61 151l-162 -110l-29 41l112 72q-10 4 -15 7q-18 9 -29 20q-81 65 -81 137q0 21 10.5 44.5t40.5 35.5q10 4 28 7h122v60h-230l-35 52h396z" />
    <glyph glyph-name="q" unicode="q" horiz-adv-x="312" 
d="M389 425h-131v-66q1 -9 1 -14q0 -15 -5.5 -20t-20.5 -8q-2 0 -6 -1h-132q-10 -3 -14 -6q-14 -9 -14 -22q0 -3 2 -9q10 -28 45 -28q24 0 53 10q8 3 16 4t16 1q20 0 32 -9t12 -22q0 -16 -20 -22t-44 -6h-9.5h-2.5q-8 1 -19 -1.5t-28 -19.5q-27 -27 -27 -62q0 -38 35 -48
q2 -1 11.5 -2.5t15.5 -1.5q24 0 42 15q6 5 14 15q-4 5 -5 8q-5 10 -5 19q0 14 12 22q13 8 44.5 -10t31.5 -41q0 -21 -21 -36q-3 -2 -11 -6l38 -86l-26 -14l-37 90q-5 -2 -8 -3q-24 -9 -45 -9q-5 0 -11.5 0.5t-19.5 3.5q-30 7 -56 32q-21 20 -33 46q-3 7 -5.5 17t-2.5 17
q0 27 19 54q6 9 20 22q-13 7 -20 12q-23 16 -36 37t-13 36q0 26 29 41q9 5 30 11h126v60h-207l-35 52h389z" />
    <glyph glyph-name="r" unicode="r" horiz-adv-x="495" 
d="M569 425h-120v-89q0 -2 -1 -6.5t-8.5 -8t-14 -4.5t-10.5 -2h-131q-15 -6 -22 -12q-23 -19 -23 -46q0 -12 4.5 -25.5t16.5 -33.5t30.5 -28t38.5 -8q12 0 18 1t12 4q-4 6 -6 10q-6 13 -6 25q0 5 2 13q6 14 27 14q25 0 49.5 -16t24.5 -35q0 -3 -2 -9q-7 -16 -20 -26
q-4 -3 -13 -8l66 -160l-31 -15l-45 109q-9 -15 -18 -24q-25 -27 -70 -50q-20 -9 -47 -9q-21 0 -39.5 5.5t-35.5 19.5q-10 8 -14.5 21t-4.5 26q0 17 3 29q0 2 3 6q-6 0 -11 -0.5t-11 -0.5q-21 0 -39.5 2.5t-42.5 11.5t-40 28t-16 44q0 13 4 23t15 22q22 27 66 27
q23 0 40 -9.5t26 -30.5q6 -15 6 -29q0 -20 -12 -39q-4 -6 -12 -15q4 -1 12.5 -2t13.5 -1q10 0 21 3q16 6 21.5 8.5t10.5 6.5l32 -34q-13 -7 -20 -12q-22 -17 -24.5 -31.5t-2.5 -22.5q0 -28 27 -28q39 0 91 49q19 17 32 34q7 9 13 22q-11 -2 -19 -2q-24 0 -48 9
q-33 13 -63 43q-23 23 -39 55t-16 65q0 19 5 32q9 27 42 38q11 3 32 6h119v60h-397l-35 52h571zM152 175q0 20 -13 32t-31 12q-16 0 -25 -12t-9 -29q0 -6 1 -9q6 -26 33 -35q9 -3 27 -4q6 8 8 13q9 18 9 32z" />
    <glyph glyph-name="s" unicode="s" horiz-adv-x="529" 
d="M568 425h-99v-425l-52 39v63h-113q1 -11 1 -17q0 -13 -2.5 -22t-10.5 -10q-22 -3 -53 28q-24 24 -35 45q-4 7 -4 12q0 8 9 13q3 1 9 4h46q0 27 -8 38q-15 19 -48 19q-25 0 -56.5 -16.5t-37.5 -14.5q-24 9 -46 35q-18 22 -33 54q-8 17 -8 34q0 29 29 48q9 6 30 13h154v60
h-240l-36 52h568zM417 154v271h-124v-112h-176q-20 0 -34 -12t-14 -31q3 -21 21 -32q6 -3 18 -7q15 8 25 12q31 12 61 12q66 0 94 -50q9 -16 15 -51h114z" />
    <glyph glyph-name="t" unicode="t" horiz-adv-x="474" 
d="M512 425h-99v-426l-52 40v69q-17 -18 -29 -27q-39 -30 -81 -42q-18 -5 -36 -5q-36 0 -71 16t-54.5 44.5t-19.5 53.5t18 46q6 7 19 16q-13 8 -20 14q-23 18 -37 35q-28 36 -28 60q0 26 29 39q9 4 30 8h110v59h-191l-36 52h512zM361 181v244h-112v-66v-15t-5 -18t-20 -10
q-2 0 -6 -1h-121q-11 -3 -16 -5q-16 -8 -12 -23q8 -27 36 -36q9 -3 27 -4q10 2 23 3t33 1q32 0 54 -6t25 -21t3 -16q0 -18 -29 -18q-11 0 -27 2.5t-21 2.5q-30 0 -49 -19t-19 -41q0 -36 13 -51t36 -15q22 0 49 11q13 5 42 21q42 22 72 52q10 10 24 28z" />
    <glyph glyph-name="u" unicode="u" horiz-adv-x="337" 
d="M402 425h-120v-89q-1 -3 -2 -5q-4 -7 -9.5 -10t-12 -4t-11.5 -2h-139q-14 -9 -20 -15q-20 -20 -20 -45q0 -12 5.5 -26t17.5 -29q18 -23 60 -30q14 -2 39 -3l-3 6q-7 16 -7 29q0 5 2 13q6 16 27 16q26 0 51.5 -20t20.5 -42q-4 -17 -19 -27q-5 -3 -15 -7l70 -165l-32 -14
l-36 85q-3 -8 -6 -13q-19 -32 -58 -48q-18 -7 -40 -7q-38 0 -71.5 21t-36 36.5t-2.5 19.5v6q0 36 37 66q12 10 37 23q-5 4 -8 6q-9 8 -19 18q-22 24 -37 55.5t-15 63.5q0 15 6.5 37.5t33.5 33.5q9 3 26 6h132v60h-230l-35 52h404zM217 113q-5 2 -13 3t-21 1
q-19 0 -31.5 -2.5t-30.5 -11.5t-32.5 -28t-14.5 -36t13.5 -28t35.5 -11q17 0 35 8.5t33 26t21 36.5t6 32v5.5t-1 4.5z" />
    <glyph glyph-name="v" unicode="v" horiz-adv-x="258" 
d="M326 153q-19 -13 -32 -19q-40 -19 -80 -19q-16 0 -28.5 2t-29.5 9q-35 15 -59 39q-20 20 -30 45q-5 11 -5 25q0 27 23 52q7 8 24 20q-21 12 -32 20q-35 25 -47 49.5t-12 43.5q0 31 24 50t60 19q37 0 63 -27t23 -59q-4 -30 -27 -45q-15 -9 -51 -15q4 -3 6 -5q9 -7 16 -11
t12.5 -6t9.5 -3h88l17 -48h-85q-20 -5 -29 -10q-30 -16 -30 -44q0 -5 2 -15q6 -24 23 -35t41 -11q17 0 32.5 3.5t30.5 11.5q22 9 53 31q11 7 29 22v-70zM153 407q1 5 1 13q0 21 -11.5 32.5t-29.5 11.5q-36 0 -44 -39q-2 -12 -2 -16q0 -24 15 -40q5 -5 15 -11q17 4 25 8
q27 13 31 41z" />
    <glyph glyph-name="w" unicode="w" horiz-adv-x="253" 
d="M321 161l-240 -150l-36 46l121 68q-28 10 -42 19q-44 27 -57 66q-4 12 -4 24q0 29 23 54q7 8 23 19q-21 12 -32 20q-35 25 -47 49.5t-12 43.5q0 31 24 50t60 19q37 0 63 -27t23 -59q-4 -30 -27 -45q-15 -9 -51 -15q4 -3 6 -5q9 -7 16 -11t12.5 -6t9.5 -3h88l17 -48h-85
q-20 -5 -29 -10q-30 -16 -30 -44q0 -5 2 -15q6 -24 24 -35.5t41 -11.5q16 0 32.5 4.5t30.5 11.5q38 20 65 40q4 3 11 9v-58zM153 407q1 5 1 13q0 21 -11.5 32.5t-29.5 11.5q-36 0 -44 -39q-2 -12 -2 -16q0 -24 15 -40q5 -5 15 -11q17 4 25 8q27 13 31 41z" />
    <glyph glyph-name="x" unicode="x" horiz-adv-x="225" 
d="M301 425h-302l-35 52h300zM289 243h-164v-39q0 -43 -24 -39q-19 4 -48 41t-29 59q0 27 41 27h224v-49z" />
    <glyph glyph-name="y" unicode="y" horiz-adv-x="225" 
d="M291 425h-292l-35 52h291zM289 243h-164v-39q0 -43 -24 -39q-19 4 -48 41t-29 59q0 27 41 27h224v-49zM289 128l-161 -112l-36 41l197 124v-53z" />
    <glyph glyph-name="z" unicode="z" horiz-adv-x="217" 
d="M285 425h-286l-35 52h285zM282 218l-138 -79q8 -9 12 -14q13 -18 13 -32q0 -10 -5 -16q-12 -18 -39 -18q-25 0 -49 15.5t-28 39.5q-3 17 11 34q4 5 16 13l173 91q-11 9 -19 14q-24 15 -61 28q-14 5 -46 11q-5 1 -15 2q0 -18 -2 -26q-7 -26 -31 -26q-20 0 -34.5 19
t-14.5 44q0 15 9 29q16 23 48 23q17 0 41.5 -7t55.5 -25.5t69 -48.5q13 -10 34 -28v-43z" />
    <glyph glyph-name="braceleft" unicode="{" horiz-adv-x="200" 
d="M264 181q-12 -8 -21 -11q-29 -12 -56 -12h-15q-12 3 -18 4q-53 15 -84 60q-10 15 -21 43v160h-49l-36 52h256l36 -52h-155v-167q3 -23 8 -34q17 -34 59 -34q25 0 63 31q12 10 33 32v-72z" />
    <glyph glyph-name="bar" unicode="|" horiz-adv-x="203" 
d="M271 425h-167v-138q0 -17 4 -31q12 -41 52 -52q13 -4 28 -4q31 0 60 20q9 6 22 20v-60l-200 -146l-35 40l136 91q-17 9 -27 14q-32 18 -49 35q-11 11 -27 36.5t-16 39.5v135h-52l-35 52h271z" />
    <glyph glyph-name="braceright" unicode="}" horiz-adv-x="408" 
d="M425 425h-122v-153q12 7 19 11q24 13 37.5 15.5t24.5 2.5q18 0 30 -3q2 0 6 -3v-43q-11 3 -19 3q-13 0 -26 -4q-26 -8 -52 -26q-8 -5 -20 -16v-209l-52 39v144q-9 -7 -16 -10q-21 -10 -44 -10q-18 0 -36.5 6.5t-38.5 21.5q-33 26 -50 56q-5 10 -10 25v153h-56l-36 52h425
zM251 244v181h-143v-159q0 -58 56 -58q31 0 62 18q10 6 25 18z" />
    <glyph glyph-name="asciitilde" unicode="~" horiz-adv-x="408" 
d="M425 425h-122v-153q12 7 19 11q24 13 37.5 15.5t24.5 2.5q18 0 30 -3q2 0 6 -3v-43q-11 3 -19 3q-13 0 -26 -4q-26 -8 -52 -26q-8 -5 -20 -16v-209l-52 39v144q-9 -7 -16 -10q-21 -10 -44 -10q-18 0 -36.5 6.5t-38.5 21.5q-33 26 -50 56q-5 10 -10 25v153h-56l-36 52h425
zM166 77l-54 -53l-52 52l54 53zM251 244v181h-143v-159q0 -58 56 -58q31 0 62 18q10 6 25 18z" />
    <glyph glyph-name="nonbreakingspace" unicode="&#xa0;" horiz-adv-x="288" 
d="M355 207l-156 67l-139 -106l-38 38l124 87q-21 8 -32 14q-37 20 -52 48q-9 15 -9 36q0 33 20 57q24 29 69 29q7 1 9 1q37 0 67 -24q20 -16 33 -39q10 -20 10 -41q0 -30 -21 -58q-7 -9 -21 -22l136 -54v-33zM208 364q4 11 4 24q0 25 -18 42t-41 17q-24 0 -35 -22t-11 -46
q3 -33 34 -52q10 -6 30 -12q9 7 14 12q16 17 23 37z" />
    <glyph glyph-name="exclamdown" unicode="&#xa1;" horiz-adv-x="355" 
d="M551 425h-253v-153q15 10 24 14q31 15 57 15h12t17 -4q32 -10 57 -47.5t25 -77.5q0 -7 -2 -19q-6 -34 -28 -73q-7 -13 -21 -33l-48 43q12 14 18 23q21 30 31.5 55.5t10.5 42.5q0 23 -16 33.5t-39 10.5q-13 0 -19 -2t-8 -2q-29 -8 -53 -26q-7 -5 -18 -16v-209l-53 39v145
q-10 -6 -17 -9q-23 -10 -44 -10q-20 0 -37 5.5t-37 20.5q-34 26 -50 55q-5 10 -10 26v153h-49l-37 52h551zM245 244v181h-143v-159q0 -58 56 -58q31 0 62 18q10 6 25 18z" />
    <glyph glyph-name="cent" unicode="&#xa2;" horiz-adv-x="355" 
d="M551 425h-253v-153q15 10 24 14q31 15 57 15h12t17 -4q32 -10 57 -47.5t25 -77.5q0 -7 -2 -19q-6 -34 -28 -73q-7 -13 -21 -33l-48 43q12 14 18 23q21 30 31.5 55.5t10.5 42.5q0 23 -16 33.5t-39 10.5q-13 0 -19 -2t-8 -2q-29 -8 -53 -26q-7 -5 -18 -16v-209l-53 39v145
q-10 -6 -17 -9q-23 -10 -44 -10q-20 0 -37 5.5t-37 20.5q-34 26 -50 55q-5 10 -10 26v153h-49l-37 52h551zM166 77l-54 -53l-52 52l54 53zM245 244v181h-143v-159q0 -58 56 -58q31 0 62 18q10 6 25 18z" />
    <glyph glyph-name="sterling" unicode="&#xa3;" horiz-adv-x="356" 
d="M558 425h-257v-150q13 8 22 12q30 13 55 13q17 0 32.5 -5t30.5 -18q22 -20 37.5 -48t15.5 -60q0 -14 -5 -32q-8 -28 -28 -63q-6 -11 -18 -28l-44 43q11 15 17 24q21 32 28 56t7 39q0 25 -14 35.5t-41 10.5q-31 0 -66 -20q-11 -6 -29 -21v-213l-52 39v152l-198 -126
l-34 49l115 66q-12 7 -18 11q-20 14 -32 26q-17 18 -25 45q-1 4 -3 10v153h-54l-36 52h559zM249 239v186h-143v-159q1 -20 5 -29q13 -29 51 -29q35 0 64 15q10 5 23 16z" />
    <glyph glyph-name="currency" unicode="&#xa4;" horiz-adv-x="239" 
d="M317 425h-318l-35 52h317zM307 177q-15 -20 -28 -29q-40 -29 -98 -29q-50 0 -98 39q-53 43 -53 98q0 46 39 73.5t92 27.5q54 0 105 -31q17 -10 41 -32v-117zM298 230v38q-9 11 -16 17q-25 21 -58 29q-7 2 -17.5 3t-18.5 1q-21 0 -33 -3q-2 0 -6 -3l88 -132q6 4 10 6
q11 7 21 16q10 7 24 21q2 2 6 7zM212 169l-89 131q-9 -6 -14 -10q-16 -13 -24 -30t-8 -35q0 -25 16.5 -42.5t48.5 -21.5q5 -1 16 -1q20 0 32 2.5t22 6.5z" />
    <glyph glyph-name="yen" unicode="&#xa5;" horiz-adv-x="241" 
d="M304 425h-305l-35 52h304zM308 164l-217 -144l-40 47l96 55q-39 16 -58 29q-58 42 -58 105q0 47 45 76q38 25 89 25q53 0 103 -27q16 -9 40 -27v-34q-11 11 -20 17q-27 19 -60 28q-8 2 -18.5 3t-18.5 1q-22 0 -35 -3q-2 0 -7 -3l88 -131q11 6 16 9q18 11 25 17l30 25v-68
zM212 169l-89 131q-8 -4 -13 -8q-16 -12 -24 -29q-11 -22 -11 -42q0 -25 16 -41t51 -20q5 -1 9 -1h5q18 0 39 5q6 1 17 5z" />
    <glyph glyph-name="brokenbar" unicode="&#xa6;" horiz-adv-x="301" 
d="M371 425h-114l-36 52h114zM370 193h-165v-28q-1 -10 -2 -14q-5 -14 -18 -14q-16 0 -48 30q-27 26 -40 44q-5 8 -5 14q0 9 12 14q4 1 12 4h36v64q-19 3 -30 6q-67 20 -87 71q-4 11 -4 24q0 30 20.5 52t56.5 22h12.5t18.5 -4q37 -11 55 -53q6 -14 11 -41v-140h165v-51z
M152 331v72q0 26 -10 38t-26 12q-17 0 -26.5 -14t-9.5 -35q0 -19 9 -34q13 -21 39 -32q8 -3 24 -7z" />
    <glyph glyph-name="section" unicode="&#xa7;" horiz-adv-x="301" 
d="M359 425h-101l-37 52h102zM370 193h-165v-28q-1 -10 -2 -14q-5 -14 -18 -14q-16 0 -48 30q-27 26 -40 44q-5 8 -5 14q0 9 12 14q4 1 12 4h36v64q-19 3 -30 6q-67 20 -87 71q-4 11 -4 24q0 30 20.5 52t56.5 22h12.5t18.5 -4q37 -11 55 -53q6 -14 11 -41v-140h165v-51z
M370 100l-182 -100l-35 46l217 106v-52zM152 331v72q0 26 -10 38t-26 12q-17 0 -26.5 -14t-9.5 -35q0 -19 9 -34q13 -21 39 -32q8 -3 24 -7z" />
    <glyph glyph-name="dieresis" unicode="&#xa8;" horiz-adv-x="259" 
d="M324 193h-179v-35q0 -8 -2 -15.5t-11 -10.5q-18 -6 -58.5 36t-40.5 57q0 9 9 15q3 1 9 4h42v181h-93l-36 52h323l36 -52h-178v-181h179v-51z" />
    <glyph glyph-name="copyright" unicode="&#xa9;" horiz-adv-x="261" 
d="M324 193h-179v-35q0 -8 -2 -15.5t-11 -10.5q-18 -6 -58.5 36t-40.5 57q0 9 9 15q3 1 9 4h42v181h-93l-36 52h323l36 -52h-178v-181h179v-51zM325 110l-173 -110l-33 44l206 119v-53z" />
    <glyph glyph-name="ordfeminine" unicode="&#xaa;" horiz-adv-x="239" 
d="M305 167q-19 -10 -30 -15q-36 -16 -58 -16q-49 0 -81 11t-62 44q-17 20 -32 61q-4 13 -11 38q9 1 19 3t20 6q46 18 61.5 32.5t15.5 34.5q0 22 -17 43q-5 7 -18 16h-112l-36 52h297l34 -52h-145q8 -11 12 -17q15 -22 22.5 -38.5t7.5 -29.5q0 -19 -11.5 -35t-32.5 -28
t-60 -26l-15 -5q6 -14 11 -22q16 -24 40 -34t47 -10q26 0 54 11q12 5 31.5 14.5t38.5 22.5q3 2 10 8v-69z" />
    <glyph glyph-name="guillemotleft" unicode="&#xab;" horiz-adv-x="239" 
d="M305 175l-226 -146l-35 49l113 60q-9 1 -15 2q-35 11 -62 51q-16 25 -31 64q-5 13 -12 35q9 1 19 3t20 6q46 18 61.5 32.5t15.5 34.5q0 22 -17 43q-5 7 -17 16h-119l-36 52h304l37 -52h-150q8 -11 13 -17q16 -21 23 -36t7 -30q0 -21 -11.5 -37t-32.5 -28t-58 -29
q-5 -2 -13 -6q5 -13 9 -20q14 -22 38 -32q12 -5 24 -7t23 -2q17 0 36 5t52 21q11 5 31 19q3 2 9 7v-58z" />
    <glyph glyph-name="logicalnot" unicode="&#xac;" horiz-adv-x="397" 
d="M431 425h-97v-425l-52 39v90q-14 -12 -24 -18q-30 -19 -61 -25q-18 -2 -26 -2q-41 0 -72.5 17t-47.5 50q-12 24 -13.5 43.5t-2.5 28.5q11 -2 19 -2q11 0 23.5 2.5t26.5 7.5q40 14 40 42q0 22 -26 36q-31 17 -83 17q-51 0 -97 -6q-15 -2 -35 -6l-21 48q11 4 24.5 5.5
t48.5 5.5q53 0 91 -5.5t67 -21t48.5 -39.5t19.5 -54q-1 -7 -1 -11q-6 -37 -45 -54q-13 -5 -38 -10q1 -12 3.5 -24.5t10.5 -22.5q14 -14 35 -14q22 0 50 15q17 9 42 28t37 36q3 5 7 12v217h-435l-35 52h584z" />
    <glyph glyph-name="minus" unicode="&#xad;" horiz-adv-x="317" 
d="M351 425h-351l-36 52h352zM311 233q-18 -10 -32 -14q-42 -14 -91 -14q-43 0 -107 32q-21 10 -56 32l20 23q24 -13 39 -19q48 -19 89 -19q58 0 104 19q15 6 34 19v-59z" />
    <glyph glyph-name="registered" unicode="&#xae;" horiz-adv-x="269" 
d="M333 425h-129v-141q-3 -14 -5 -22q-7 -25 -18 -39q-16 -21 -43 -36l-12 -6l144 -167l-26 -21l-144 162q-20 21 -29 34q-29 39 -29 64q0 11 6.5 19.5t16.5 8.5q11 0 32.5 -14.5t25.5 -13.5q12 2 22 21q3 6 7 18v133h-153l-35 52h334z" />
    <glyph glyph-name="macron" unicode="&#xaf;" horiz-adv-x="269" 
d="M454 425h-250v-101q11 6 18 8q23 8 45 8q25 0 46 -11q36 -20 56 -54t20 -71q0 -19 -8 -38q-14 -33 -34 -64q-3 -5 -10 -14l-46 41q10 11 16 19q19 26 31 55q8 19 8 39q0 24 -12 37q-15 16 -45 16q-6 0 -26 -3t-45 -17q-8 -4 -20 -14q-1 -7 -2 -11q-4 -13 -15 -27
q-14 -19 -35 -32q-7 -4 -20 -10l144 -167l-26 -21l-144 162q-20 21 -29 34q-29 39 -29 64q0 11 6.5 19.5t16.5 8.5q11 0 32.5 -14.5t25.5 -13.5q12 2 22 21q3 6 7 18v133h-153l-35 52h455z" />
    <glyph glyph-name="degree" unicode="&#xb0;" horiz-adv-x="269" 
d="M578 425h-374v-146h40q10 22 20 33q31 34 83 34q39 0 81 -43q38 -40 66 -102q14 -33 28 -68q2 -7 7 -20l-26 -12l-35 84q-23 52 -48 77q-30 30 -71 30q-29 0 -53 -16.5t-24 -41.5q0 -15 13 -31q6 -8 14.5 -11t17.5 -3q19 0 38 9q3 1 8 5l30 -43q-9 -5 -14 -7
q-18 -7 -36 -7q-16 0 -26 3q-25 7 -49 32q-13 14 -21 39q-2 8 -5 22h-50q-2 -6 -4 -10q-6 -11 -19.5 -24t-34.5 -23q-3 -1 -8 -4l144 -167l-26 -21l-144 162q-20 21 -29 34q-29 39 -29 64q0 11 6.5 19.5t16.5 8.5q11 0 32.5 -14.5t25.5 -13.5q12 2 22 21q3 6 7 18v133h-153
l-35 52h578z" />
    <glyph glyph-name="plusminus" unicode="&#xb1;" horiz-adv-x="349" 
d="M399 425h-399l-37 52h399zM416 259q-8 10 -14 15q-19 16 -39 16q-12 0 -26 -6.5t-27 -20.5q-17 -18 -43 -57q-8 -12 -21 -33l-42 29l33 52q-14 16 -22 23q-26 24 -44 24q-85 0 -85 -82q0 -41 28 -86q3 -6 43 -57q11 -13 40 -44l12 -12l-19 -20q-28 29 -43 46
q-45 50 -64 77q-25 36 -37 69.5t-12 58.5q0 42 24.5 67.5t44 28t28.5 2.5q42 0 87 -38q15 -12 36 -38q14 22 24 32q31 32 63 32q30 0 62 -28q5 -4 13 -13v-37z" />
    <glyph glyph-name="twosuperior" unicode="&#xb2;" horiz-adv-x="502" 
d="M544 425h-545l-35 52h545zM507 206q2 -16 2 -24q0 -53 -32 -94q-36 -46 -93 -46q-39 0 -81 29q-14 9 -34 29q-14 -20 -25 -30q-33 -30 -76 -30q-55 0 -94 40t-39 96q0 53 39 91t96 38q35 0 74 -33q13 -11 32 -34q9 17 16 26q24 29 50.5 36.5t45.5 7.5q43 0 76.5 -27.5
t42.5 -74.5zM464 192q0 38 -17.5 59t-43.5 21q-39 0 -67 -43q-20 -31 -39 -70q-6 -12 -15 -31q5 -8 9 -13q27 -30 66 -30q12 0 32 5q30 8 52.5 37.5t22.5 64.5zM265 213q-14 16 -23 23q-29 23 -61 23q-20 0 -38 -7.5t-40 -28.5q-13 -12 -21.5 -32t-8.5 -40q0 -31 21 -52
t49 -21q24 0 46.5 15.5t41.5 49.5l22 44q4 9 12 26z" />
    <glyph glyph-name="threesuperior" unicode="&#xb3;" horiz-adv-x="480" 
d="M577 425h-153v-122q23 -11 35 -21q37 -31 43 -81q1 -6 1 -17q0 -56 -33 -96q-36 -44 -92 -44q-38 0 -80 29q-14 9 -34 29q-14 -20 -25 -30q-34 -30 -78 -30q-54 0 -93 40t-39 96q0 53 39 91t96 38q35 0 74 -33q13 -11 32 -34q2 5 4 9q14 24 42 43q12 9 34 14q7 1 21 4
v115h-371l-36 52h578zM458 194q0 38 -17.5 59t-42.5 21q-18 0 -37 -11.5t-32 -31.5q-21 -34 -39 -70q-6 -12 -15 -31q5 -8 9 -13q27 -30 66 -30q18 0 33 5q30 8 52.5 37.5t22.5 64.5zM259 215q-14 16 -23 23q-29 23 -61 23q-20 0 -38 -7.5t-40 -28.5q-30 -26 -30 -74
q0 -30 21.5 -50.5t48.5 -20.5q25 0 47 15.5t41 49.5l22 44q4 9 12 26z" />
    <glyph glyph-name="acute" unicode="&#xb4;" horiz-adv-x="252" 
d="M311 425h-312l-35 52h310zM316 183q-16 -24 -29 -35q-40 -35 -96 -35q-58 0 -108.5 43.5t-50.5 99.5q4 47 39 75t89 28q60 0 114 -56q18 -18 42 -56v-64zM306 235q-18 25 -32 37q-43 38 -92 38q-9 -1 -14 -1q-39 -4 -63.5 -26.5t-24.5 -58.5t17 -53t48 -17q24 0 55 12
t59 32q18 13 35 27q5 4 12 10z" />
    <glyph glyph-name="mu" unicode="&#xb5;" horiz-adv-x="246" 
d="M313 425h-314l-35 52h313zM313 171l-234 -164l-39 47l103 64q-35 16 -52 30q-52 43 -52 106q0 50 34.5 79t87.5 29q58 0 111 -54q17 -18 41 -54v-83zM305 238q-21 23 -36 34q-48 35 -99 35q-37 0 -65 -21t-28 -53q1 -7 1 -10q5 -34 25.5 -49.5t51.5 -15.5q26 0 55 10
t56 28q19 13 31 29q3 5 8 13z" />
    <glyph glyph-name="paragraph" unicode="&#xb6;" horiz-adv-x="329" 
d="M383 425h-126q10 -17 15 -27q18 -35 20.5 -57.5t2.5 -30.5q0 -35 -16.5 -65t-47.5 -57q-24 -20 -59 -37q-6 -3 -16 -7l100 -136l-33 -23l-102 146q-14 0 -23 1q-27 5 -47 25q-16 16 -16 40q0 34 34 38q20 2 39 -22q6 -8 15 -25q12 6 19 9q22 11 35 21q19 15 34 33
q2 3 6 8q-14 3 -22 5q-24 7 -42 15q-37 17 -54 34q-23 22 -30 55q-2 13 3 36q1 7 6 21h-79l-35 52h386zM242 359q0 32 -21 50t-54 18q-17 0 -29 -17t-12 -38q0 -16 10 -34q17 -29 56 -44q13 -5 37 -10q4 12 6 21q7 30 7 54z" />
    <glyph glyph-name="periodcentered" unicode="&#xb7;" horiz-adv-x="429" 
d="M486 425h-145l-36 52h145zM495 124q-20 -22 -34 -32q-42 -32 -85 -32q-8 -1 -10 -1q-57 0 -101.5 39.5t-44.5 96.5q0 32 19 58q6 8 20 20l-54 30l-134 -95l-33 39l119 77q-24 12 -37 20q-38 25 -51 50q-3 5 -4 10.5t-1 12.5q0 26 22 46t58 20q45 0 78 -16
q27 -13 40 -34.5t13 -41.5q0 -27 -23 -52q-7 -8 -23 -20l59 -30q7 2 16 3t23 1q13 0 20 -1q57 -6 108 -56q17 -16 40 -50v-62zM226 392q3 9 3 18q0 23 -21 36t-48 11q-22 -3 -32.5 -18t-10.5 -35q0 -13 7.5 -25.5t32.5 -25.5q8 -4 23 -10q12 9 18 14q21 18 28 35zM486 175
q-22 22 -37 32q-47 33 -93 33q-40 0 -64 -19.5t-24 -56.5q0 -33 15.5 -48.5t43.5 -15.5q25 0 53.5 10.5t57.5 28.5q19 12 41 30q3 2 7 6z" />
    <glyph glyph-name="periodcentered" unicode="&#x2219;" horiz-adv-x="429" 
d="M486 425h-145l-36 52h145zM495 124q-20 -22 -34 -32q-42 -32 -85 -32q-8 -1 -10 -1q-57 0 -101.5 39.5t-44.5 96.5q0 32 19 58q6 8 20 20l-54 30l-134 -95l-33 39l119 77q-24 12 -37 20q-38 25 -51 50q-3 5 -4 10.5t-1 12.5q0 26 22 46t58 20q45 0 78 -16
q27 -13 40 -34.5t13 -41.5q0 -27 -23 -52q-7 -8 -23 -20l59 -30q7 2 16 3t23 1q13 0 20 -1q57 -6 108 -56q17 -16 40 -50v-62zM226 392q3 9 3 18q0 23 -21 36t-48 11q-22 -3 -32.5 -18t-10.5 -35q0 -13 7.5 -25.5t32.5 -25.5q8 -4 23 -10q12 9 18 14q21 18 28 35zM486 175
q-22 22 -37 32q-47 33 -93 33q-40 0 -64 -19.5t-24 -56.5q0 -33 15.5 -48.5t43.5 -15.5q25 0 53.5 10.5t57.5 28.5q19 12 41 30q3 2 7 6z" />
    <glyph glyph-name="cedilla" unicode="&#xb8;" horiz-adv-x="315" 
d="M382 165l-220 -156l-41 40l223 153l-131 75l-148 -108l-40 41l132 86q-11 3 -18 6q-41 18 -60 53q-9 15 -9 36q0 33 20 57q24 29 69 29q7 1 9 1q38 0 67 -23q22 -18 33.5 -40.5t11.5 -45.5q0 -34 -28 -60q-4 -4 -13 -10l143 -80v-54zM225 364q2 5 3 11.5t1 11.5
q0 25 -17.5 41.5t-41.5 16.5t-34.5 -20t-10.5 -46q0 -34 28 -51q9 -5 28 -11q12 6 18 11q19 15 26 36z" />
    <glyph glyph-name="onesuperior" unicode="&#xb9;" horiz-adv-x="224" 
d="M288 172q-17 -12 -29 -17q-38 -18 -73 -18q-27 0 -52.5 10t-49.5 34q-19 19 -30 48q-3 9 -7 25v171h-48l-35 52h284l35 -52h-184l189 -162v-91zM274 231l-175 151v-135q0 -24 3 -36q10 -36 45 -36q38 0 86 28q16 9 41 28z" />
    <glyph glyph-name="ordmasculine" unicode="&#xba;" horiz-adv-x="306" 
d="M374 425h-170v-148q12 -14 21 -20q30 -21 67 -21q31 0 59 18q9 6 22 18v-68q-5 -3 -8 -5q-23 -12 -49 -12q-12 0 -26 3q-33 7 -69 32q-11 8 -28 23q-3 -8 -5 -12q-7 -13 -16 -23q-14 -14 -31 -23q-6 -3 -16 -7l139 -166l-27 -21l-137 160q-20 22 -29 35q-29 40 -29 65
q0 10 6 19.5t17 9.5q10 0 41 -21q14 -9 18 -8q16 5 22 21t6 32v119h-152l-36 52h376z" />
    <glyph glyph-name="guillemotright" unicode="&#xbb;" horiz-adv-x="349" 
d="M415 425h-211v-115q15 6 25 8q34 9 58 9q17 0 25 -2q32 -6 69 -32q12 -8 31 -25v-72l-141 -92l-35 40l171 97q-13 12 -23 18q-32 18 -74 18q-40 0 -82 -16q-14 -5 -34 -16l-6 -12q-8 -14 -18.5 -25t-28.5 -20q-6 -3 -16 -7l139 -168l-27 -20l-136 159q-20 22 -29 35
q-30 41 -30 67q0 10 6 19t17 9q12 0 33 -15t26 -14q15 3 23 26q2 8 5 24v122h-153l-35 52h417z" />
    <glyph glyph-name="onequarter" unicode="&#xbc;" horiz-adv-x="356" 
d="M392 196h-182q-40 -8 -60 -15q-60 -23 -60 -65t32 -76q24 -26 68 -50q27 -15 68 -30q14 -5 39 -13l-8 -25q-30 11 -47 18q-53 21 -83 37q-51 27 -74 47q-35 30 -43 69q-2 6 -2 11.5v8.5q0 28 16 54q5 8 17 21q-11 14 -17 24q-19 30 -24.5 51t-5.5 34q0 37 37 52
q12 4 38 7h134v69h-236l-35 52h383l37 -52h-97v-87q0 -6 -0.5 -12.5t-5 -11t-13 -5t-13.5 -1.5h-136q-8 0 -12 -1q-28 -6 -38 -30q-3 -9 -3 -18q0 -20 14 -39q4 -6 15 -16q3 4 6 6q18 15 47 23q8 2 28.5 3t29.5 1h14h3h147z" />
    <glyph glyph-name="onehalf" unicode="&#xbd;" horiz-adv-x="312" 
d="M395 425h-137v-96q-2 -10 -4.5 -13t-7 -4t-9.5 -2h-124q-16 -3 -23 -6q-23 -11 -23 -37q0 -15 15 -25q5 -3 15 -7q10 8 18 11q25 11 58 11q54 0 91 -35t37 -76q0 -36 -34 -60q-11 -8 -35 -17l-33 45q19 7 28 12q28 17 28 43q0 24 -13.5 35.5t-36.5 11.5q-46 0 -83 -35
q-32 -32 -32 -72q0 -22 9.5 -39.5t33.5 -33.5q45 -33 81 -50q6 -3 14 -6l-15 -23q-12 5 -22 10q-22 11 -80 47q-35 23 -55 54q-23 35 -23 74q0 29 18 54q6 8 19 20q-17 16 -25 26q-24 32 -20 63q5 35 33 49q9 4 27 7h120v64h-206l-35 52h395z" />
    <glyph glyph-name="threequarters" unicode="&#xbe;" horiz-adv-x="332" 
d="M420 425h-145v-92q-1 -5 -2 -10.5t-5 -9t-11 -3.5h-14h-122q-18 -2 -26 -6q-15 -8 -20 -20t-5 -21q0 -17 16 -30q5 -4 16 -9q17 12 29 17q36 17 73 17q17 0 26 -2q32 -6 53.5 -31t21.5 -48q0 -7 -1 -10q-5 -16 -31 -41q-45 -43 -36 -55q13 -13 29 -13t36 13q6 4 17 13
l22 -39q-10 -6 -16 -9q-22 -10 -41 -10q-17 0 -33.5 7t-34.5 25t-18 41q0 18 11 33t25 24q33 21 33 38q0 11 -16 17.5t-27 4.5q-57 -10 -91 -38q-30 -25 -36 -60q-1 -4 -1 -11q0 -34 32 -67q23 -24 65 -48q28 -15 69 -30q14 -5 39 -13l-9 -24q-30 10 -47 16q-54 20 -82 39
q-63 40 -74 49q-35 30 -44 72q-3 14 -3 24q0 31 17 57q5 9 18 21q-10 9 -15 15q-17 21 -25 43t-8 39q0 37 38 52q12 4 38 7h120v66h-226l-35 52h418z" />
    <glyph glyph-name="questiondown" unicode="&#xbf;" horiz-adv-x="367" 
d="M434 425h-123v-92q-1 -3 -2 -6.5t-7.5 -7t-11 -4t-9.5 -0.5h-163q-13 -1 -19 -4q-20 -9 -25 -32q-4 -27 15 -41q6 -4 20 -10q8 8 15 12q23 14 47 17.5t37 3.5q34 0 62.5 -10.5t50.5 -38.5q24 -28 33.5 -53t9.5 -61q0 -35 -26 -62q-8 -8 -26 -20l-36 41q6 4 10 6
q25 17 34.5 36.5t9.5 38.5q0 20 -10 35q-1 2 -5 6l-101 -89l-30 35l100 85q-9 6 -15 8q-20 8 -44 8q-20 0 -47 -8.5t-50 -38.5q-26 -34 -22 -73q0 -34 18 -58q14 -18 46 -40q27 -19 57 -34q16 -8 38 -16l-12 -27q-17 8 -28 13q-23 11 -61 32q-46 25 -68.5 48.5t-35.5 58.5
q-5 12 -7 24.5t-2 22.5q0 29 15 57q5 9 15 22q-18 19 -26 30q-27 37 -23 64q6 42 36 57q10 5 30 7h160v58h-258l-35 52h435z" />
    <glyph glyph-name="Agrave" unicode="&#xc0;" horiz-adv-x="536" 
d="M573 425h-97v-426l-53 40v63h-112q1 -8 1 -12q0 -19 -5 -27t-15 -10q-18 -3 -50.5 26t-32.5 56q0 13 26 18q8 1 26 2v32q1 15 -4 21q-9 11 -30 11q-45 0 -82.5 -32.5t-44.5 -68.5q-2 -16 -2 -22q0 -49 60 -82q23 -13 66 -32q13 -6 37 -15l-9 -24q-26 10 -42 17
q-46 20 -83 40q-73 41 -79 101q0 46 16 78q5 10 17 24q-11 10 -16 16q-18 21 -25.5 43t-7.5 38q0 38 38 52q12 4 39 7h132v66h-242l-35 52h572zM423 154v271h-130v-96q-3 -12 -6.5 -16t-12 -4.5t-12.5 -1.5h-137h-12q-30 -4 -38 -34q-2 -8 -2 -11q0 -19 16 -30q5 -3 17 -8
q18 10 29 15q37 16 69 16q13 0 27 -3q40 -10 63 -41q8 -10 16 -31v-26h113z" />
    <glyph glyph-name="Aacute" unicode="&#xc1;" horiz-adv-x="523" 
d="M560 425h-99v-425l-52 39v44q-9 -10 -16 -16q-22 -19 -50 -26q-5 -2 -15 -3.5t-21 -1.5q-39 0 -81 33q-13 10 -31 27q-5 5 -15 16l57 45q30 26 30 46q0 12 -13 18t-30 4q-57 -7 -91 -43q-27 -28 -35 -66q-2 -12 -2 -17q0 -45 53 -82q16 -12 53 -29q12 -5 34 -15l-9 -24
q-14 6 -23 10q-54 24 -87 45.5t-47 37.5q-19 23 -25 59q-1 5 -1 15q0 30 16 61q5 10 17 26q-14 13 -21 22q-22 29 -27 65q-6 43 34 60q13 5 42 9h132v66h-238l-35 52h559zM409 157v268h-119v-96q-2 -12 -7 -16.5t-11.5 -5t-12.5 -0.5h-140q-15 0 -25 -4.5t-17 -17t-7 -22.5
q0 -16 15 -29q5 -4 15 -10q17 11 29 16q39 17 78 17q14 0 22 -1q35 -5 58.5 -26.5t23.5 -45.5q0 -9 -5 -19q-11 -18 -41 -45q-10 -9 -29 -24q9 -6 15 -9q20 -9 42 -9q18 0 27 3q36 10 66 44q10 11 23 32z" />
    <glyph glyph-name="Acircumflex" unicode="&#xc2;" 
d="M132 -189l-14 -16q-15 13 -23 21q-36 34 -43 39q-16 13 -31 26q-27 21 -58 29q-9 3 -20 3q-16 0 -33 -5q-6 -1 -15 -6l-43 53q9 4 15 6q19 6 38 6q15 0 25.5 -2.5t24.5 -9.5q35 -18 60 -38q34 -30 55 -48q16 -13 41 -37q8 -7 21 -21z" />
    <glyph glyph-name="Atilde" unicode="&#xc3;" 
d="M-158 1l-49 -48l-47 47l47 47z" />
    <glyph glyph-name="Adieresis" unicode="&#xc4;" 
d="M-140 679l-40 -41l-39 40l40 39zM-42 627q-12 -22 -21 -34q-30 -36 -71 -46q-6 -1 -13 -1.5t-10 -0.5q-29 0 -56 14.5t-50 39.5q-15 18 -29 49q-2 5 -6 14l18 7l6 -12q14 -27 29 -40q33 -32 71 -32q31 0 60 23q15 12 26 30q4 6 9 17z" />
    <glyph glyph-name="Aring" unicode="&#xc5;" 
d="M19 -135l-21 -22l-107 108l-130 -103l-35 36l154 120z" />
    <glyph glyph-name="AE" unicode="&#xc6;" 
d="M-31 600l-56 -55l-54 54l56 56z" />
    <glyph glyph-name="Ccedilla" unicode="&#xc7;" 
d="M-45 672l-10 -11q-4 3 -7 4q-9 4 -19 4q-13 0 -27 -8.5t-20.5 -23t-6.5 -34.5q0 -19 4 -33.5t12 -30.5q13 -25 29 -46q6 -7 16 -19h-21q-10 13 -15 22q-33 52 -48.5 81.5t-15.5 62.5q0 31 14 51.5t43 20.5q27 0 52 -20q8 -6 20 -20z" />
    <glyph glyph-name="Egrave" unicode="&#xc8;" 
d="M-47 672l-10 -11q-4 3 -7 4q-9 4 -19 4q-13 0 -27 -8.5t-20.5 -23t-6.5 -34.5q0 -19 4 -33.5t12 -30.5q13 -25 29 -46q6 -7 16 -19h-21q-10 13 -15 22q-33 52 -48.5 81.5t-15.5 62.5q0 31 14 51.5t43 20.5q27 0 52 -20q8 -6 20 -20zM-14 582l-41 -40l-39 38l41 41z" />
    <glyph glyph-name="Eacute" unicode="&#xc9;" horiz-adv-x="172" 
d="M208 425h-96v-425l-52 39v386h-61l-36 52h210z" />
    <glyph glyph-name="Ecircumflex" unicode="&#xca;" horiz-adv-x="172" 
d="M338 520q-16 26 -28 41q-38 48 -83 76q-14 9 -30 13.5t-37 4.5q-42 0 -68 -27q-16 -16 -23 -34.5t-7 -37.5q0 -27 13 -56q4 -9 13 -23h85l35 -52h-96v-426l-52 40v386h-61l-35 52h105q-16 19 -24 32q-25 40 -25 76q0 32 17 58.5t43 39t59 12.5q45 0 80 -23q43 -27 86 -76
q13 -15 33 -42v-34z" />
    <glyph glyph-name="Edieresis" unicode="&#xcb;" horiz-adv-x="172" 
d="M447 632l-48 -48l-47 46l48 49zM338 520q-16 26 -28 41q-38 48 -83 76q-14 9 -30 13.5t-37 4.5q-42 0 -68 -27q-16 -16 -23 -34.5t-7 -37.5q0 -27 13 -56q4 -9 13 -23h85l35 -52h-96v-426l-52 40v386h-61l-35 52h105q-16 19 -24 32q-25 40 -25 76q0 32 17 58.5t43 39
t59 12.5q45 0 80 -23q43 -27 86 -76q13 -15 33 -42v-34z" />
    <glyph glyph-name="Igrave" unicode="&#xcc;" horiz-adv-x="172" 
d="M431 666l-9 -10q-7 6 -12 8q-15 8 -30 8q-18 0 -32.5 -10t-20.5 -24.5t-6 -28.5q0 -25 11 -50q2 -4 6 -10v-29q-16 26 -28 41q-38 48 -83 76q-14 9 -30 13.5t-37 4.5q-42 0 -68 -27q-16 -16 -23 -34.5t-7 -37.5q0 -27 13 -56q4 -9 13 -23h85l35 -52h-96v-426l-52 40v386
h-61l-35 52h105q-16 19 -24 32q-25 40 -25 76q0 32 17 58.5t43 39t58 12.5q44 0 80.5 -22.5t64.5 -46.5q5 -4 11 -10q-1 5 -2 14t-1 13q0 24 8 39q12 22 40 30q12 3 22 3q31 0 53 -24q7 -8 17 -25z" />
    <glyph glyph-name="Iacute" unicode="&#xcd;" horiz-adv-x="172" 
d="M431 597l-41 -39l-38 38l40 39zM431 666l-9 -10q-7 6 -12 8q-15 8 -30 8q-18 0 -32.5 -10t-20.5 -24.5t-6 -28.5q0 -25 11 -50q2 -4 6 -10v-29q-16 26 -28 41q-38 48 -83 76q-14 9 -30 13.5t-37 4.5q-42 0 -68 -27q-16 -16 -23 -34.5t-7 -37.5q0 -27 13 -56q4 -9 13 -23
h85l35 -52h-96v-426l-52 40v386h-61l-35 52h105q-16 19 -24 32q-25 40 -25 76q0 32 17 58.5t43 39t58 12.5q44 0 80.5 -22.5t64.5 -46.5q5 -4 11 -10q-1 5 -2 14t-1 13q0 24 8 39q12 22 40 30q12 3 22 3q31 0 53 -24q7 -8 17 -25z" />
    <glyph glyph-name="Icircumflex" unicode="&#xce;" horiz-adv-x="172" 
d="M537 513l-81 58q-23 17 -66 42.5t-66 35.5q-48 19 -98 19t-89 -23.5t-57 -77.5q-6 -21 -6 -37q0 -26 9 -45q1 -3 5 -8h85l35 -52h-96v-426l-52 40v386h-60l-36 52h105q-13 17 -19 28q-19 35 -19 71q0 16 2 27t10 27q22 44 59 63t83 19q32 0 65.5 -8.5t63 -22t59.5 -30.5
q24 -14 82 -52q27 -18 56 -41q10 -8 26 -21v-24z" />
    <glyph glyph-name="Idieresis" unicode="&#xcf;" horiz-adv-x="172" 
d="M631 652l-54 -53l-52 52l54 54zM537 513l-81 58q-23 17 -66 42.5t-66 35.5q-48 19 -98 19t-89 -23.5t-57 -77.5q-6 -21 -6 -37q0 -26 9 -45q1 -3 5 -8h85l35 -52h-96v-426l-52 40v386h-60l-36 52h105q-13 17 -19 28q-19 35 -19 71q0 16 2 27t10 27q22 44 59 63t83 19
q32 0 65.5 -8.5t63 -22t59.5 -30.5q24 -14 82 -52q27 -18 56 -41q10 -8 26 -21v-24z" />
    <glyph glyph-name="Eth" unicode="&#xd0;" horiz-adv-x="172" 
d="M625 666l-10 -10q-7 6 -12 8q-17 9 -33 9q-17 0 -32.5 -9.5t-22 -24.5t-6.5 -33q0 -16 3.5 -28.5t7.5 -23.5q1 -2 4 -7l13 -10v-24q-9 7 -15 11q-42 32 -66 48q-30 21 -67 43t-65 35q-47 21 -96 21q-51 0 -87 -23q-42 -27 -61 -81q-6 -21 -6 -37q0 -26 9 -45q1 -3 5 -8
h85l35 -52h-96v-426l-52 40v386h-60l-36 52h105q-13 17 -19 28q-19 35 -19 71q0 16 2 27t10 27q22 44 58 63t81 19q31 0 65.5 -8.5t65.5 -21.5q41 -18 115 -66q25 -16 68 -46q-4 6 -6 11q-8 17 -10 29.5t-2 22.5q0 31 16.5 53t33 25.5t25.5 3.5q32 0 55 -24q7 -8 17 -25z
" />
    <glyph glyph-name="Ntilde" unicode="&#xd1;" horiz-adv-x="172" 
d="M627 593l-40 -40l-38 38l40 39zM625 666l-10 -10q-7 6 -12 8q-17 9 -33 9q-17 0 -32.5 -9.5t-22 -24.5t-6.5 -33q0 -16 3.5 -28.5t7.5 -23.5q1 -2 4 -7l13 -10v-24q-9 7 -15 11q-42 32 -66 48q-30 21 -67 43t-65 35q-47 21 -96 21q-51 0 -87 -23q-42 -27 -61 -81
q-6 -21 -6 -37q0 -26 9 -45q1 -3 5 -8h85l35 -52h-96v-426l-52 40v386h-60l-36 52h105q-13 17 -19 28q-19 35 -19 71q0 16 2 27t10 27q22 44 58 63t81 19q31 0 65.5 -8.5t65.5 -21.5q41 -18 115 -66q25 -16 68 -46q-4 6 -6 11q-8 17 -10 29.5t-2 22.5q0 31 16.5 53t33 25.5
t25.5 3.5q32 0 55 -24q7 -8 17 -25z" />
    <glyph glyph-name="Ograve" unicode="&#xd2;" horiz-adv-x="172" 
d="M208 425h-96v-426l-52 40v386h-58l-35 52h104q-8 30 -14 49q-19 55 -43 95.5t-59 40.5q-29 0 -45 -30q-4 -8 -6 -18.5t-2 -19.5q0 -22 8 -44q2 -7 9 -19h-23q-8 18 -12 29q-13 37 -13 67q0 27 10 51q17 39 66 39q34 0 59 -25q22 -22 41 -62q15 -32 27 -70q10 -27 15 -56
q2 -10 4 -27h80z" />
    <glyph glyph-name="Oacute" unicode="&#xd3;" horiz-adv-x="182" 
d="M148 660l-41 -40l-39 39l41 41zM218 425h-106v-426l-52 40v386h-58l-35 52h104q-2 17 -4 29q-14 67 -45 118q-11 18 -28 28t-35 10q-33 0 -49 -30q-4 -8 -6 -18.5t-2 -19.5q0 -22 8 -44q2 -7 9 -19h-23q-8 18 -12 29q-13 37 -13 67q0 27 10 51q17 39 66 39q34 0 59 -25
q22 -22 41 -62q15 -32 27 -70q10 -27 15 -56q2 -10 4 -27h89z" />
    <glyph glyph-name="Ocircumflex" unicode="&#xd4;" horiz-adv-x="182" 
d="M218 425h-106v-426l-52 40v386h-58l-35 52h109q-7 32 -13 51q-18 57 -43.5 95.5t-63.5 38.5q-32 0 -46 -30q-8 -19 -8 -40q0 -27 11 -51q2 -4 6 -10h-23q-8 18 -12 29q-13 37 -13 67q0 27 10 51q18 41 64 41q27 0 51 -18q11 -8 18 -17l6 -9q4 12 8 18q12 19 27.5 22.5
t20.5 3.5q24 0 50 -21q8 -7 21 -21l-10 -10q-4 3 -7 4q-19 9 -34 9q-4 0 -14 -2q-19 -6 -28 -28q-3 -7 -6 -22q7 -13 10 -21q13 -28 18 -47q6 -16 16 -54q3 -11 8 -29h82z" />
    <glyph glyph-name="Otilde" unicode="&#xd5;" horiz-adv-x="182" 
d="M164 598l-38 -36l-35 35l37 37zM218 425h-106v-426l-52 40v386h-58l-35 52h109q-7 32 -13 51q-18 57 -43.5 95.5t-63.5 38.5q-32 0 -46 -30q-8 -19 -8 -40q0 -27 11 -51q2 -4 6 -10h-23q-8 18 -12 29q-13 37 -13 67q0 27 10 51q18 41 64 41q27 0 51 -18q11 -8 18 -17
l6 -9q4 12 8 18q12 19 27.5 22.5t20.5 3.5q24 0 50 -21q8 -7 21 -21l-10 -10q-4 3 -7 4q-19 9 -34 9q-4 0 -14 -2q-19 -6 -28 -28q-3 -7 -6 -22q7 -13 10 -21q13 -28 18 -47q6 -16 16 -54q3 -11 8 -29h82z" />
    <glyph glyph-name="Odieresis" unicode="&#xd6;" 
d="M-12 -157q-28 -25 -68 -25q-42 0 -90 30q-40 25 -75 52q-11 8 -27 21l16 18q13 -11 21 -16q21 -15 43 -27.5t33 -17.5q30 -14 53 -14q8 0 12 1q34 5 52 24t18 41q0 26 -22 32q-10 2 -13 2q-20 0 -39 -16q-6 -5 -16 -17l-53 39q9 12 16 18q23 18 56 18q8 -1 13 -1
q41 -4 66.5 -37t25.5 -72q0 -34 -22 -53z" />
    <glyph glyph-name="multiply" unicode="&#xd7;" 
d="M-158 1l-49 -48l-47 47l47 47zM-4 -125q2 -6 2 -19q0 -28 -19.5 -48.5t-49.5 -25.5q-16 -2 -24 -2q-22 0 -45 8t-50 27q-21 15 -53 43q-11 9 -29 27l18 16q16 -17 27 -26q34 -30 64 -45q12 -6 26 -9t23 -3q16 0 25.5 2.5t19.5 9.5q36 23 36 51q0 12 -7.5 19.5t-20.5 7.5
q-8 0 -19.5 -3.5t-25.5 -20.5q-2 -2 -5 -8l-42 33q8 11 14 16q20 17 46 17q29 0 55 -17.5t34 -49.5z" />
    <glyph glyph-name="Oslash" unicode="&#xd8;" 
d="M19 -135l-21 -22l-107 108l-124 -96l-34 36l147 113zM-22 -184q1 -4 1 -13q0 -25 -16.5 -45.5t-41.5 -26.5q-6 -2 -17.5 -3.5t-22.5 -1.5q-20 0 -42 5.5t-46 19t-54 34.5q-11 7 -30 22l16 16q9 -8 15 -12q39 -29 74 -44q17 -6 34 -6q21 0 41 7t34 15.5t21.5 19.5t7.5 21
q0 26 -29 26q-11 0 -22 -6.5t-24 -19.5q-2 -2 -6 -8l-42 32q8 10 14 15q20 16 46 16q32 0 54 -13q28 -17 35 -50z" />
    <glyph glyph-name="Ugrave" unicode="&#xd9;" 
d="M-22 -192q1 -5 1 -14q0 -22 -15 -39t-42 -24q-6 -2 -17.5 -3.5t-22.5 -1.5q-20 0 -42.5 5.5t-46.5 19t-54 34.5q-11 7 -30 22l16 16q9 -8 15 -12q39 -29 74 -44q15 -7 38 -7q24 0 46 6.5t34 14.5q25 17 25 29q0 17 -38 17q-9 0 -23 -2.5t-29 -9.5q-2 -1 -6 -4l-29 37
q7 6 13 9q20 10 48 10t48 -11q29 -16 37 -48z" />
    <glyph glyph-name="Uacute" unicode="&#xda;" 
d="M97 -172l-17 -12l-34 46q-25 32 -30 39q-23 29 -44 43t-47 14q-51 0 -69 -41q-2 -5 -3 -10t-1 -10q0 -31 35 -31q14 0 27.5 4.5t26.5 14.5q4 3 12 11l34 -42q-11 -9 -18 -13q-25 -14 -50 -14q-16 0 -29 3.5t-29 14.5q-47 30 -47 81q0 18 7 33q20 45 75 45q45 0 86 -32
q21 -18 43 -45q12 -15 29 -39z" />
    <glyph glyph-name="Ucircumflex" unicode="&#xdb;" 
d="M-158 1l-49 -48l-47 47l47 47zM84 -199l-15 -12l-37 41q-29 34 -60 61q-24 21 -50 21q-19 0 -32.5 -9.5t-18.5 -22t-5 -22.5q0 -24 25 -24q12 0 23.5 5t29.5 15l6 3l23 -36q-9 -7 -14 -10q-19 -11 -37 -11q-7 0 -16.5 1.5t-23.5 10.5q-21 13 -34 32.5t-13 42.5
q0 6 3.5 22.5t22 30t43.5 13.5q33 0 65 -27q16 -14 43 -44q23 -26 32 -35q15 -16 28 -31q5 -5 12 -15z" />
    <glyph glyph-name="Udieresis" unicode="&#xdc;" 
d="M19 -135l-21 -22l-107 108l-130 -103l-35 36l154 120zM31 -262l-15 -11l-31 42q-25 33 -53 50q-10 7 -22.5 11t-20.5 4q-19 0 -32.5 -10.5t-16.5 -19.5t-3 -19q0 -26 25 -26q9 0 23 5.5t28 14.5q2 1 6 5l23 -36q-8 -7 -13 -10q-18 -11 -38 -11q-19 0 -40.5 11.5t-34 30
t-12.5 44.5q0 8 2 20.5t19.5 28t44.5 15.5q28 0 59 -21q13 -9 33 -30q16 -18 31 -37z" />
    <glyph glyph-name="Yacute" unicode="&#xdd;" 
d="M31 -262l-15 -11l-31 42q-25 33 -53 50q-10 7 -22.5 11t-20.5 4q-19 0 -32.5 -10.5t-16.5 -19.5t-3 -19q0 -26 25 -26q9 0 23 5.5t28 14.5q2 1 6 5l23 -36q-8 -7 -13 -10q-18 -11 -38 -11q-19 0 -40.5 11.5t-34 30t-12.5 44.5q0 8 2 20.5t19.5 28t44.5 15.5q28 0 59 -21
q13 -9 33 -30q16 -18 31 -37z" />
    <glyph glyph-name="Thorn" unicode="&#xde;" 
d="M-44 -157q-10 -4 -16 -5q-22 -6 -39 -6q-18 0 -33 4q-31 8 -56.5 29t-35.5 53q-5 17 -5 32q0 18 7.5 34t28 31.5t53.5 22.5q11 2 30 4l46 -39q-10 -1 -22 -2t-35 -8q-40 -12 -61 -34q-17 -18 -17 -37q0 -4 2 -10q11 -31 58 -31h14q11 2 16 2q20 3 35 7q3 0 7 3z" />
    <glyph glyph-name="germandbls" unicode="&#xdf;" 
d="M1 -265q-15 -3 -26 -4q-38 -5 -65 -5h-31q-15 3 -21 4q-36 5 -65 26q-34 24 -34 54q0 8 5.5 21t29.5 23q4 1 11 4q-23 13 -33 21q-32 27 -26 53t35 35q15 5 37 5h69v70h52v-113h-116q-16 -2 -23 -4q-22 -8 -16 -24q5 -15 31 -19q4 0 13 -1h135v-44h-104q-19 -3 -27 -7
q-26 -13 -22 -41q2 -16 14 -23t31 -7q18 0 42 5q31 8 45 11q22 6 47 18q4 2 12 7v-65z" />
    <glyph glyph-name="agrave" unicode="&#xe0;" 
d="M-60 471h-21l-10 53q-5 11 -9 16q-13 17 -26 20t-68 4.5t-78 22.5q-15 15 -20 46q-1 10 -2 28l-1 45h25l2 -36q2 -17 5 -25q12 -26 43 -26q62 0 84 -6t39 -24q11 -11 23 -43q2 -5 5 -14z" />
    <glyph glyph-name="aacute" unicode="&#xe1;" 
d="M-51 665l-48 -47l-47 46l49 48zM-78 471h-21l-12 53q-6 10 -10 15q-14 15 -33 15q-47 0 -77 5q-47 8 -68 28q-15 15 -20 46q-1 10 -2 28v45h24v-36q-1 -8 0 -13q6 -31 44 -38q55 -8 85.5 -12t45 -16t25.5 -37q3 -8 8 -22z" />
    <glyph glyph-name="acircumflex" unicode="&#xe2;" 
d="M-55 676l-9 -15q-10 6 -16 8q-18 7 -30 4q-16 -3 -22.5 -16t-6.5 -30q0 -14 5 -34q0 -3 2 -8l14 -26l10 -27l17 -61h-22l-17 53q-4 12 -8 18q-13 19 -33 19h-33q-36 0 -63 5t-43.5 20.5t-21.5 46.5q-1 10 -2 28v46h26v-37q0 -9 1 -14q9 -32 44 -36.5t67 -7.5q10 0 25 -2
q-4 8 -6 13q-6 17 -6 38t14 38t39 17q12 0 25.5 -4t32.5 -20q6 -5 17 -16z" />
    <glyph glyph-name="atilde" unicode="&#xe3;" 
d="M-44 610l-35 -35l-35 35l35 35zM-55 676l-9 -15q-10 6 -16 8q-18 7 -30 4q-16 -3 -22.5 -16t-6.5 -30q0 -14 5 -34q0 -3 2 -8l14 -26l10 -27l17 -61h-22l-17 53q-4 12 -8 18q-13 19 -33 19h-33q-36 0 -63 5t-43.5 20.5t-21.5 46.5q-1 10 -2 28v46h26v-37q0 -9 1 -14
q9 -32 44 -36.5t67 -7.5q10 0 25 -2q-4 8 -6 13q-6 17 -6 38t14 38t39 17q12 0 25.5 -4t32.5 -20q6 -5 17 -16z" />
    <glyph glyph-name="adieresis" unicode="&#xe4;" 
d="M-61 471h-23q-6 17 -9 27q-11 32 -24 54q-18 30 -32 46q-17 19 -39 30q-12 7 -24 8.5t-27 1.5l-27 67q17 1 30.5 -2t33.5 -15q28 -17 50 -43q18 -22 44 -68q20 -32 39 -83q3 -9 8 -23z" />
    <glyph glyph-name="aring" unicode="&#xe5;" 
d="M-16 665l-48 -47l-47 46l48 48zM-76 471h-23q-4 17 -7 27q-10 32 -23 54q-18 30 -34 47.5t-35.5 27.5t-33.5 10.5t-20 0.5l-27 67q17 1 31 -2t34 -15q27 -16 49 -43q18 -22 45 -68q15 -26 31 -68q5 -14 13 -38z" />
    <glyph glyph-name="ae" unicode="&#xe6;" 
d="M-37 669l-8 -9q-9 5 -14 7q-17 7 -32 7q-11 0 -19 -4q-17 -10 -26 -34q-3 -8 -6 -22q9 -13 13 -21q12 -21 20 -36q12 -26 24 -59q3 -10 9 -27h-23q-5 18 -8 29q-10 32 -24 55q-17 28 -28 40q-16 19 -39 31q-15 8 -29 9.5t-25 2.5l-27 67q15 1 29 -2t32.5 -13.5
t37.5 -28.5l8 -8q2 17 5 25q11 26 41 32q8 2 13 2q25 0 53 -21q9 -7 23 -22z" />
    <glyph glyph-name="ccedilla" unicode="&#xe7;" 
d="M-16 596l-41 -40l-38 38l40 39zM-37 669l-8 -9q-9 5 -14 7q-17 7 -32 7q-11 0 -19 -4q-17 -10 -26 -34q-3 -8 -6 -22q9 -13 13 -21q12 -21 20 -36q12 -26 24 -59q3 -10 9 -27h-23q-5 18 -8 29q-10 32 -24 55q-17 28 -28 40q-16 19 -39 31q-15 8 -29 9.5t-25 2.5l-27 67
q15 1 29 -2t32.5 -13.5t37.5 -28.5l8 -8q2 17 5 25q11 26 41 32q8 2 13 2q25 0 53 -21q9 -7 23 -22z" />
    <glyph glyph-name="egrave" unicode="&#xe8;" 
d="M-62 473h-19q-7 17 -10 26q-11 28 -17 39q-24 44 -34 58q-25 35 -56 50q-17 7 -37 12q-6 1 -16 3l-15 62q7 0 24 -1t43.5 -19.5t54.5 -59.5q25 -37 49 -89q16 -32 28 -66zM-123 473h-18q-3 5 -4 9q-6 13 -14 24q-12 14 -25.5 23t-29.5 15t-27 6h-16l-14 54q7 0 16.5 -0.5
t27.5 -8.5t35 -23q11 -10 29 -31.5t34 -53.5q2 -5 6 -14z" />
    <glyph glyph-name="eacute" unicode="&#xe9;" 
d="M-9 664l-46 -45l-44 43l46 46zM-66 473h-19q-7 17 -10 26q-11 28 -17 39q-24 44 -34 58q-25 36 -56 50q-17 7 -37 12q-6 1 -16 3l-15 62q7 0 24.5 -1t44.5 -20t53 -57t50 -91q11 -23 23 -56q3 -10 9 -25zM-123 473h-18q-3 5 -4 9q-6 13 -14 24q-12 14 -25.5 23t-29.5 15
t-27 6h-16l-14 54q7 0 16.5 -0.5t27.5 -8.5t35 -23q11 -10 29 -31.5t34 -53.5q2 -5 6 -14z" />
    <glyph glyph-name="ecircumflex" unicode="&#xea;" 
d="M-38 673l-7 -12q-7 4 -12 6q-15 6 -30 6q-9 0 -21 -5q-14 -8 -20 -29q-2 -7 -4 -20l34 -65q11 -23 23 -56q3 -10 9 -25h-19q-7 17 -10 26q-11 28 -17 39q-24 44 -34 58q-25 36 -56 50q-17 7 -37 12q-6 1 -16 3l-15 62q7 0 24.5 -1t43.5 -20q11 -7 26 -23q4 -5 12 -14
q1 9 3 14q12 32 44 32q24 0 54 -19q9 -6 25 -19zM-123 473h-18q-3 5 -4 9q-6 13 -14 24q-12 14 -25.5 23t-29.5 15t-27 6h-16l-14 54q7 0 16.5 -0.5t27.5 -8.5t35 -23q11 -10 29 -31.5t34 -53.5q2 -5 6 -14z" />
    <glyph glyph-name="edieresis" unicode="&#xeb;" 
d="M-38 673l-7 -12q-7 4 -12 6q-15 6 -30 6q-9 0 -21 -5q-14 -8 -20 -29q-2 -7 -4 -20l34 -65q11 -23 23 -56q3 -10 9 -25h-19q-7 17 -10 26q-11 28 -17 39q-24 44 -34 58q-25 36 -56 50q-17 7 -37 12q-6 1 -16 3l-15 62q7 0 24.5 -1t43.5 -20q11 -7 26 -23q4 -5 12 -14
q1 9 3 14q12 32 44 32q24 0 54 -19q9 -6 25 -19zM-16 592l-37 -36l-34 35l36 35zM-123 473h-18q-3 5 -4 9q-6 13 -14 24q-12 14 -25.5 23t-29.5 15t-27 6h-16l-14 54q7 0 16.5 -0.5t27.5 -8.5t35 -23q11 -10 29 -31.5t34 -53.5q2 -5 6 -14z" />
    <glyph glyph-name="igrave" unicode="&#xec;" 
d="M-47 625q-10 -21 -18 -32q-26 -35 -65 -45q-7 -2 -22 -2q-27 0 -50 14t-41 40q-14 20 -28 47q-2 5 -6 13l18 10q6 -12 10 -19q12 -22 24 -34.5t26.5 -19.5t28.5 -7q25 0 49 19q15 11 27 30q4 6 9 17z" />
    <glyph glyph-name="iacute" unicode="&#xed;" 
d="M-19 623l-49 -48l-47 47l48 48zM-144 626q-9 -21 -17 -31q-24 -33 -57 -39q-12 -2 -16 -2q-21 0 -39 12t-34 34q-11 16 -20 38q-2 7 -6 19l18 9q4 -12 7 -18q9 -21 19 -31.5t22 -16t23 -5.5q10 0 19.5 4t16.5 10q16 13 24 32q1 3 3 8z" />
    <glyph glyph-name="icircumflex" unicode="&#xee;" 
d="M-174 628q-7 -25 -14 -37q-22 -38 -61 -43q-5 -1 -13 -1q-27 0 -47.5 13.5t-37.5 39.5q-12 19 -20 38q-3 7 -8 20l17 10q2 -8 4 -12q11 -26 26 -41q20 -21 48 -21q25 0 41 14.5t23 31.5q2 6 5 16zM-45 672l-10 -11q-4 3 -7 4q-9 4 -19 4q-13 0 -27 -8.5t-20.5 -23
t-6.5 -34.5q0 -19 4 -33.5t12 -30.5q13 -25 29 -46q6 -7 16 -19h-21q-10 13 -15 22q-33 52 -48.5 81.5t-15.5 62.5q0 31 14 51.5t43 20.5q27 0 52 -20q8 -6 20 -20z" />
    <glyph glyph-name="idieresis" unicode="&#xef;" 
d="M-174 628q-7 -25 -14 -37q-22 -38 -61 -43q-5 -1 -13 -1q-27 0 -47.5 13.5t-37.5 39.5q-12 19 -20 38q-3 7 -8 20l17 10q2 -8 4 -12q11 -26 26 -41q20 -21 48 -21q25 0 41 14.5t23 31.5q2 6 5 16zM-14 582l-41 -40l-39 38l41 41zM-45 672l-10 -11q-4 3 -7 4q-9 4 -19 4
q-13 0 -27 -8.5t-20.5 -23t-6.5 -34.5q0 -19 4 -33.5t12 -30.5q13 -25 29 -46q6 -7 16 -19h-21q-10 13 -15 22q-33 52 -48.5 81.5t-15.5 62.5q0 31 14 51.5t43 20.5q27 0 52 -20q8 -6 20 -20z" />
    <glyph glyph-name="eth" unicode="&#xf0;" horiz-adv-x="213" 
d="M-10 453h-9v-10h9v10z" />
    <glyph glyph-name="ntilde" unicode="&#xf1;" horiz-adv-x="254" 
d="M-10 453h-9v-10h9v10z" />
    <glyph glyph-name="ograve" unicode="&#xf2;" horiz-adv-x="177" 
d="M-10 453h-9v-10h9v10z" />
    <glyph glyph-name="oacute" unicode="&#xf3;" horiz-adv-x="131" 
d="M-10 453h-9v-10h9v10z" />
    <glyph glyph-name="ocircumflex" unicode="&#xf4;" horiz-adv-x="65" 
d="M-10 453h-9v-10h9v10z" />
    <glyph glyph-name="otilde" unicode="&#xf5;" horiz-adv-x="50" 
d="M-10 453h-9v-10h9v10z" />
    <glyph glyph-name="odieresis" unicode="&#xf6;" horiz-adv-x="67" 
d="M-10 453h-9v-10h9v10z" />
    <glyph glyph-name="divide" unicode="&#xf7;" horiz-adv-x="28" 
d="M-10 453h-9v-10h9v10z" />
    <glyph glyph-name="oslash" unicode="&#xf8;" horiz-adv-x="42" 
d="M-10 453h-9v-10h9v10z" />
    <glyph glyph-name="ugrave" unicode="&#xf9;" horiz-adv-x="25" 
d="M-10 453h-9v-10h9v10z" />
    <glyph glyph-name="uacute" unicode="&#xfa;" horiz-adv-x="52" 
d="M-10 453h-9v-10h9v10z" />
    <glyph glyph-name="ucircumflex" unicode="&#xfb;" horiz-adv-x="163" 
d="M-10 453h-9v-10h9v10z" />
    <glyph glyph-name="udieresis" unicode="&#xfc;" horiz-adv-x="283" 
d="M-10 453h-9v-10h9v10z" />
    <glyph glyph-name="yacute" unicode="&#xfd;" horiz-adv-x="62" 
d="M-10 453h-9v-10h9v10z" />
    <glyph glyph-name="thorn" unicode="&#xfe;" horiz-adv-x="34" 
d="M-10 453h-9v-10h9v10z" />
    </font>
</defs>
</svg>
